<svg xmlns="http://www.w3.org/2000/svg" viewBox="0 0 500 500"><g id="freepik--Floor--inject-52"><path id="freepik--floor--inject-52" d="M84.09,242.25c-91.62,52.9-91.62,138.67,0,191.57s240.18,52.9,331.81,0,91.62-138.67,0-191.57S175.72,189.35,84.09,242.25Z" style="fill:#fafafa"></path></g><g id="freepik--Shadows--inject-52"><polygon id="freepik--Shadow--inject-52" points="472.9 307.62 426.65 334.31 369.22 301.14 415.47 274.46 472.9 307.62" style="fill:#e0e0e0"></polygon><ellipse id="freepik--shadow--inject-52" cx="364.54" cy="311.48" rx="44.87" ry="25.9" style="fill:#e0e0e0"></ellipse><ellipse id="freepik--shadow--inject-52" cx="256.01" cy="253.34" rx="28.72" ry="16.58" style="fill:#e0e0e0"></ellipse><path id="freepik--shadow--inject-52" d="M70.17,316.51,292.24,444.72a5.78,5.78,0,0,0,5.19,0L414,377.43c1.43-.83,1.43-2.17,0-3L191.92,246.22a5.78,5.78,0,0,0-5.19,0L70.17,313.51C68.74,314.34,68.74,315.68,70.17,316.51Z" style="fill:#e0e0e0"></path><path id="freepik--shadow--inject-52" d="M77,325.1c9.3,5.43,9.3,14.23,0,19.66s-24.37,5.43-33.67,0-9.3-14.23,0-19.66S67.7,319.68,77,325.1Z" style="fill:#e0e0e0"></path><g id="freepik--shadow--inject-52"><path d="M194.18,390.88c4.95,2.39,3.86,5.78,0,9s-9.87,4.89-12.65,8-6.77,8.88-15.91,8.88-16.81-3.55-12.83-8.05,8.33-5.85,15-8.68,10.62-6.17,15-8.4C186.44,389.73,189.94,388.82,194.18,390.88Z" style="fill:#e0e0e0"></path><path d="M168,381.79c-4.15-2.86-10-2.23-15.59,0s-8.47,5.7-13.82,7.31S127.15,392,125.36,398c-1.52,5.05,5.14,9.79,11.64,8.38,5.62-1.21,10.24-5.45,15.14-9.31s10.68-6.13,14.55-8.64C170,386.26,171.53,384.24,168,381.79Z" style="fill:#e0e0e0"></path></g></g><g id="freepik--Pictures--inject-52"><g id="freepik--pictures--inject-52"><g id="freepik--Picture--inject-52"><g id="freepik--Frame--inject-52"><polygon points="37.76 209.38 39.08 210.17 66.29 194.47 64.96 193.67 37.76 209.38" style="fill:#fafafa"></polygon><polygon points="64.96 193.67 39.08 208.61 39.08 142.72 64.96 127.8 64.96 193.67" style="fill:#fff"></polygon><path d="M68.79,122.68l-32.21,18.6V214.5l32.21-18.59Zm-2.5,71.79-27.21,15.7V142.72L66.29,127Z" style="fill:#f0f0f0"></path><polygon points="66.29 194.47 64.96 193.67 64.96 127.8 66.29 127.02 66.29 194.47" style="fill:#e0e0e0"></polygon><polygon points="68.79 122.68 67.44 121.91 35.24 140.51 36.58 141.28 68.79 122.68" style="fill:#fafafa"></polygon><polygon points="35.24 140.51 36.58 141.28 36.58 214.5 35.24 213.73 35.24 140.51" style="fill:#e0e0e0"></polygon></g><g id="freepik--Land--inject-52"><polygon points="63.02 192.13 41.02 204.82 41.02 145.06 63.02 132.36 63.02 192.13" style="fill:#f0f0f0"></polygon></g><g id="freepik--land--inject-52"><polygon points="63.02 192.13 41.02 204.82 41.02 145.06 63.02 132.36 63.02 192.13" style="fill:#f0f0f0"></polygon></g><path d="M41,183.49a20.57,20.57,0,0,0,3.14,0,39.68,39.68,0,0,0,10.71-2.33c2.66-1,5.32-2.26,8.14-2.34v13.33l-3,1.72A9.87,9.87,0,0,0,56,191.58c-4.24-1.12-8.59,1-12.94,1.51a16.58,16.58,0,0,1-2,.1Z" style="fill:#fafafa"></path><path d="M41,171.77c4.92-1.45,10-2.67,13.48-6.28,2.83-2.91,4.16-6.94,5.09-10.89s1.57-8,3.36-11.68l.06-.1V168c-.27.41-.55.82-.84,1.22-3.24,4.38-8,8-13.43,8.32-2.56.13-5.2-.47-7.72-.46Z" style="fill:#fafafa"></path><path d="M41,157.14a15,15,0,0,0,4.87-13.65c-.07-.37-.16-.73-.25-1.1l8.46-4.88c0,.55-.06,1.11-.07,1.66-.09,3.24,0,6.51-.7,9.66a18.93,18.93,0,0,1-9.64,12.46A17.75,17.75,0,0,1,41,162.41Z" style="fill:#fafafa"></path></g><g id="freepik--picture--inject-52"><g id="freepik--frame--inject-52"><polygon points="37.73 125.68 39.05 126.46 65.99 110.91 64.68 110.12 37.73 125.68" style="fill:#fafafa"></polygon><polygon points="64.68 110.12 39.05 124.92 39.05 98.08 64.68 83.29 64.68 110.12" style="fill:#fff"></polygon><path d="M68.47,78.23,36.57,96.65v34.1l31.9-18.42ZM66,110.91,39.05,126.46V98.08L66,82.52Z" style="fill:#f0f0f0"></path><polygon points="65.99 110.91 64.68 110.12 64.68 83.29 65.99 82.52 65.99 110.91" style="fill:#e0e0e0"></polygon><polygon points="68.47 78.23 67.13 77.47 35.24 95.88 36.57 96.65 68.47 78.23" style="fill:#fafafa"></polygon><polygon points="35.24 95.88 36.57 96.65 36.57 130.75 35.24 129.99 35.24 95.88" style="fill:#e0e0e0"></polygon></g><g id="freepik--land--inject-52"><polygon points="63.67 109.32 40.05 122.96 40.05 116.14 45.95 102.5 49.63 105.91 48.31 111.63 56.47 94.18 63.67 102.5 63.67 109.32" style="fill:#f0f0f0"></polygon><path d="M49.41,95.91a3.88,3.88,0,0,0-1.75,3c0,1.11.79,1.57,1.75,1a3.85,3.85,0,0,0,1.75-3C51.16,95.81,50.38,95.36,49.41,95.91Z" style="fill:#f0f0f0"></path></g></g></g></g><g id="freepik--Window--inject-52"><g id="freepik--window--inject-52"><g id="freepik--window--inject-52"><g id="freepik--frame--inject-52"><polygon points="341.13 36.59 338.18 38.24 338.18 148.61 341.13 146.96 341.13 36.59" style="fill:#fafafa"></polygon><polygon points="341.13 146.96 341.13 39.95 459.58 108.33 459.55 215.33 341.13 146.96" style="fill:#fff"></polygon><path d="M465.05,228.18v-123L332.7,28.76v123ZM338.18,148.61V38.24l121.4,70.1V218.7Z" style="fill:#f0f0f0"></path><polygon points="338.18 148.61 341.13 146.96 459.55 215.33 459.58 218.7 338.18 148.61" style="fill:#e0e0e0"></polygon><polygon points="371.24 57.33 368.29 55.63 368.29 165.99 371.24 164.35 371.24 57.33" style="fill:#fafafa"></polygon><polygon points="437.78 95.75 434.83 94.04 434.83 204.41 437.78 202.76 437.78 95.75" style="fill:#fafafa"></polygon><polygon points="465.05 228.18 467.99 226.47 467.99 103.46 465.05 105.17 465.05 228.18" style="fill:#e0e0e0"></polygon><polygon points="467.99 103.46 465.05 105.17 332.7 28.76 335.64 27.05 467.99 103.46" style="fill:#fafafa"></polygon><polygon points="459.58 157.8 459.58 161.2 338.17 91.11 341.1 89.4 459.58 157.8" style="fill:#e0e0e0"></polygon></g><polygon points="459.57 167.52 459.58 161.2 338.17 91.11 338.18 97.43 459.57 167.52" style="fill:#f0f0f0"></polygon><polygon points="434.83 210.73 429.36 207.57 429.36 84.56 434.83 87.72 434.83 210.73" style="fill:#f0f0f0"></polygon><polygon points="368.3 172.32 362.83 169.17 362.83 46.16 368.3 49.31 368.3 172.32" style="fill:#f0f0f0"></polygon><polygon points="434.83 146.91 437.78 145.21 437.78 95.75 434.83 94.04 434.83 146.91" style="fill:#fafafa"></polygon><polygon points="368.32 108.51 371.27 106.81 371.27 57.35 368.32 55.65 368.32 108.51" style="fill:#fafafa"></polygon></g></g></g><g id="freepik--Buttons--inject-52"><g id="freepik--buttons--inject-52"><polygon points="84.86 127.49 86.71 128.56 108.05 120.53 180.62 78.63 194.53 66.31 192.68 65.24 84.86 127.49" style="fill:#fafafa"></polygon><polygon points="84.86 127.49 86.71 128.56 86.71 139.78 84.86 138.72 84.86 127.49" style="fill:#e0e0e0"></polygon><polygon points="108.05 120.53 108.05 131.75 86.71 139.78 86.71 128.56 108.05 120.53" style="fill:#ebebeb"></polygon><polygon points="180.62 78.63 194.53 66.31 194.53 77.53 180.62 89.85 108.05 131.75 108.05 120.53 180.62 78.63" style="fill:#f5f5f5"></polygon><polygon points="116.88 124.11 112 126.92 112 120.43 116.88 117.61 116.88 124.11" style="fill:#0E006B"></polygon><polygon points="116.88 124.11 112 126.92 112 120.43 116.88 117.61 116.88 124.11" style="fill:#fff;opacity:0.6000000000000001"></polygon><polygon points="125.31 119.25 120.43 122.06 120.43 115.56 125.31 112.75 125.31 119.25" style="fill:#0E006B"></polygon><polygon points="125.31 119.25 120.43 122.06 120.43 115.56 125.31 112.75 125.31 119.25" style="fill:#fff;opacity:0.8"></polygon><polygon points="133.73 114.39 128.86 117.2 128.86 110.7 133.73 107.89 133.73 114.39" style="fill:#e6e6e6"></polygon><polygon points="142.16 109.53 137.28 112.34 137.28 105.84 142.16 103.03 142.16 109.53" style="fill:#e6e6e6"></polygon><polygon points="150.58 104.66 145.71 107.48 145.71 100.98 150.58 98.17 150.58 104.66" style="fill:#e6e6e6"></polygon><polygon points="159.01 99.8 154.13 102.62 154.13 96.12 159.01 93.3 159.01 99.8" style="fill:#0E006B"></polygon><polygon points="167.43 94.94 162.56 97.75 162.56 91.26 167.43 88.44 167.43 94.94" style="fill:#0E006B"></polygon><polygon points="167.43 94.94 162.56 97.75 162.56 91.26 167.43 88.44 167.43 94.94" style="fill:#fff;opacity:0.6000000000000001"></polygon><polygon points="175.86 90.08 170.99 92.89 170.99 86.39 175.86 83.58 175.86 90.08" style="fill:#455a64"></polygon></g></g><g id="freepik--Rack--inject-52"><g id="freepik--rack--inject-52"><path d="M424.86,314.67a16.16,16.16,0,0,0,1.61,7.38c.35.68.72,1.32.93,1.77.47,1,.1,1.27-.51.85-.88-.61-5.43-7-7.2-13Z" style="fill:#e0e0e0"></path><path d="M430.21,326a7.49,7.49,0,0,0-3.36-5.9,2.3,2.3,0,0,0-2.48-.2h0l-2.3,1.3,4.82,8.3,2.27-1.29h0A2.35,2.35,0,0,0,430.21,326Z" style="fill:#37474f"></path><path d="M424.47,321.44a7.5,7.5,0,0,1,3.35,5.9c0,2.17-1.54,3-3.4,1.94a7.51,7.51,0,0,1-3.36-5.9C421.07,321.21,422.6,320.35,424.47,321.44Z" style="fill:#455a64"></path><path d="M423.3,324.69c0-.85.52-1.23,1.15-.86a2.77,2.77,0,0,1,1.14,2.2c0,.85-.53,1.23-1.16.86A2.73,2.73,0,0,1,423.3,324.69Z" style="fill:#263238"></path><path d="M422.48,316a16.16,16.16,0,0,0,1.61,7.38c.34.69.71,1.32.93,1.77.46,1,.1,1.28-.51.86-.89-.62-5.44-7-7.21-13Z" style="fill:#f5f5f5"></path><path d="M424.52,324.93a.75.75,0,0,1,.37.56c0,.22-.13.31-.32.22a.73.73,0,0,1-.37-.57C424.18,324.93,424.33,324.83,424.52,324.93Z" style="fill:#263238"></path><path d="M459.5,294.66a16.16,16.16,0,0,0,1.61,7.38c.35.69.72,1.32.93,1.77.47,1,.1,1.28-.51.86-.88-.62-5.43-7-7.2-13Z" style="fill:#e0e0e0"></path><path d="M464.85,306a7.49,7.49,0,0,0-3.36-5.9,2.3,2.3,0,0,0-2.48-.19h0l-2.3,1.29,4.81,8.3,2.28-1.29h0A2.37,2.37,0,0,0,464.85,306Z" style="fill:#37474f"></path><path d="M459.11,301.43a7.51,7.51,0,0,1,3.35,5.9c0,2.17-1.54,3-3.4,1.94a7.49,7.49,0,0,1-3.36-5.9C455.71,301.21,457.24,300.34,459.11,301.43Z" style="fill:#455a64"></path><path d="M457.94,304.68c0-.84.52-1.23,1.15-.86a2.78,2.78,0,0,1,1.14,2.2c0,.85-.53,1.23-1.16.86A2.73,2.73,0,0,1,457.94,304.68Z" style="fill:#263238"></path><path d="M457.12,296a16.16,16.16,0,0,0,1.61,7.38c.34.69.71,1.32.93,1.77.46,1,.1,1.28-.51.86-.89-.61-5.44-7-7.21-13Z" style="fill:#f5f5f5"></path><path d="M459.16,304.92a.75.75,0,0,1,.37.57c0,.21-.13.31-.32.21a.73.73,0,0,1-.37-.57C458.82,304.92,459,304.82,459.16,304.92Z" style="fill:#263238"></path><path d="M382.13,290.1a16.16,16.16,0,0,0,1.61,7.38c.34.69.71,1.33.93,1.77.46,1,.1,1.28-.51.86-.89-.61-5.44-7-7.21-13Z" style="fill:#e0e0e0"></path><path d="M387.47,301.42a7.51,7.51,0,0,0-3.35-5.9,2.34,2.34,0,0,0-2.49-.19h0l-2.3,1.29,4.82,8.31,2.28-1.29h0A2.34,2.34,0,0,0,387.47,301.42Z" style="fill:#37474f"></path><path d="M381.73,296.88a7.49,7.49,0,0,1,3.36,5.9c0,2.16-1.54,3-3.41,1.94a7.53,7.53,0,0,1-3.36-5.91C378.34,296.65,379.86,295.78,381.73,296.88Z" style="fill:#455a64"></path><path d="M380.56,300.13c0-.85.52-1.24,1.16-.87a2.75,2.75,0,0,1,1.13,2.21c0,.84-.52,1.23-1.15.86A2.75,2.75,0,0,1,380.56,300.13Z" style="fill:#263238"></path><path d="M379.74,291.46a16.16,16.16,0,0,0,1.61,7.38c.35.68.72,1.32.93,1.77.47,1,.1,1.27-.51.85-.88-.61-5.43-7-7.2-13Z" style="fill:#f5f5f5"></path><path d="M381.79,300.37a.73.73,0,0,1,.37.56c0,.22-.14.31-.33.21a.73.73,0,0,1-.37-.56C381.45,300.36,381.59,300.27,381.79,300.37Z" style="fill:#263238"></path><path d="M416.77,270.1a16,16,0,0,0,1.61,7.38c.34.68.71,1.32.93,1.77.46,1,.1,1.27-.51.85-.89-.61-5.44-7-7.21-13Z" style="fill:#e0e0e0"></path><path d="M422.11,281.42a7.52,7.52,0,0,0-3.35-5.91,2.34,2.34,0,0,0-2.49-.19h0l-2.3,1.29,4.82,8.31,2.28-1.29h0A2.33,2.33,0,0,0,422.11,281.42Z" style="fill:#37474f"></path><path d="M416.37,276.87a7.49,7.49,0,0,1,3.36,5.9c0,2.16-1.54,3-3.41,1.94a7.52,7.52,0,0,1-3.36-5.9C413,276.64,414.5,275.77,416.37,276.87Z" style="fill:#455a64"></path><path d="M415.2,280.12c0-.85.52-1.23,1.16-.86a2.73,2.73,0,0,1,1.13,2.2c0,.85-.52,1.23-1.15.86A2.75,2.75,0,0,1,415.2,280.12Z" style="fill:#263238"></path><path d="M414.38,271.45a16.16,16.16,0,0,0,1.61,7.38c.35.68.72,1.32.93,1.77.47,1,.1,1.27-.51.85-.88-.61-5.43-7-7.2-13Z" style="fill:#f5f5f5"></path><path d="M416.43,280.36a.76.76,0,0,1,.37.56c0,.22-.14.31-.33.22a.75.75,0,0,1-.37-.57C416.09,280.36,416.23,280.26,416.43,280.36Z" style="fill:#263238"></path><path d="M372.48,287.85a1.5,1.5,0,0,0,.89,1.25L430,321.73a4.81,4.81,0,0,0,4.34,0l32.75-18.91a1.52,1.52,0,0,0,.9-1.28c0-.44,0-3.62,0-4.08a1.55,1.55,0,0,0-.9-1.25l-56.63-32.63a4.76,4.76,0,0,0-4.33,0l-32.75,18.9a1.56,1.56,0,0,0-.9,1.24C372.47,284.19,372.48,287.4,372.48,287.85Zm35.82-18.6,52.53,30.27-28.65,16.54-52.53-30.27Z" style="fill:#e6e6e6"></path><path d="M406.13,263.59l-32.75,18.9c-1.19.69-1.21,1.81,0,2.5L430,317.63a4.81,4.81,0,0,0,4.34,0l32.75-18.91a1.33,1.33,0,0,0,0-2.51l-56.63-32.63A4.76,4.76,0,0,0,406.13,263.59Zm2.17,1.56,56.08,32.32-32.2,18.59L376.1,283.74Z" style="fill:#fafafa"></path><polygon points="429.33 272.41 432.23 274.09 432.23 306.5 429.33 304.82 429.33 272.41" style="fill:#ebebeb"></polygon><polygon points="435.13 272.41 432.23 274.09 432.23 306.5 435.13 304.82 435.13 272.41" style="fill:#e0e0e0"></polygon><polygon points="406.04 219.25 408.94 220.92 408.94 253.33 406.04 251.66 406.04 219.25" style="fill:#f0f0f0"></polygon><polygon points="411.84 219.25 408.94 220.92 408.94 253.33 411.84 251.66 411.84 219.25" style="fill:#e0e0e0"></polygon><polygon points="467.2 253.9 464.3 255.58 464.3 287.99 467.2 286.31 467.2 253.9" style="fill:#e0e0e0"></polygon><polygon points="373.95 240.44 376.85 242.12 376.85 274.53 373.95 272.85 373.95 240.44" style="fill:#ebebeb"></polygon><polygon points="467.2 274.36 432.23 294.55 373.95 260.9 408.92 240.71 467.2 274.36" style="fill:#fafafa"></polygon><path d="M408.92,241.44l57,32.92-33.7,19.45-57-32.91,33.7-19.46m0-.73L374,260.9l58.28,33.65,35-20.19-58.28-33.65Z" style="fill:#e0e0e0"></path><polygon points="432.23 294.55 432.23 297.24 373.95 263.59 373.95 260.9 432.23 294.55" style="fill:#ebebeb"></polygon><polygon points="467.2 274.36 432.23 294.55 432.23 297.24 467.2 277.05 467.2 274.36" style="fill:#e0e0e0"></polygon><polygon points="467.2 247.57 432.23 267.76 373.95 234.11 408.92 213.91 467.2 247.57" style="fill:#fafafa"></polygon><path d="M408.92,214.74l56.85,32.83-33.54,19.36-56.85-32.82,33.54-19.37m0-.83-35,20.2,58.28,33.65,35-20.19-58.28-33.66Z" style="fill:#e0e0e0"></path><polygon points="432.23 267.76 432.23 270.45 373.95 236.8 373.95 234.11 432.23 267.76" style="fill:#ebebeb"></polygon><polygon points="467.2 247.57 432.23 267.76 432.23 270.45 467.2 250.26 467.2 247.57" style="fill:#e0e0e0"></polygon><polygon points="429.33 268.77 432.23 270.44 432.23 297.24 429.33 295.57 429.33 268.77" style="fill:#ebebeb"></polygon><polygon points="435.13 268.77 432.23 270.44 432.23 297.24 435.13 295.57 435.13 268.77" style="fill:#e0e0e0"></polygon><polygon points="467.2 250.26 464.3 251.94 464.3 278.73 467.2 277.06 467.2 250.26" style="fill:#e0e0e0"></polygon><polygon points="461.4 253.6 464.3 251.94 464.3 276.03 461.4 274.36 461.4 253.6" style="fill:#f0f0f0"></polygon><polygon points="373.95 236.8 376.85 238.47 376.85 265.27 373.95 263.6 373.95 236.8" style="fill:#ebebeb"></polygon><polygon points="379.75 240.14 376.85 238.47 376.85 262.57 379.75 260.9 379.75 240.14" style="fill:#e0e0e0"></polygon><polygon points="429.33 304.82 432.23 306.5 432.23 317.77 429.33 316.09 429.33 304.82" style="fill:#ebebeb"></polygon><polygon points="435.13 304.82 432.23 306.5 432.23 317.77 435.13 316.09 435.13 304.82" style="fill:#e0e0e0"></polygon><polygon points="467.2 286.31 464.3 287.99 464.3 299.26 467.2 297.58 467.2 286.31" style="fill:#e0e0e0"></polygon><polygon points="461.4 280.4 464.3 278.73 464.3 299.26 461.4 297.58 461.4 280.4" style="fill:#f0f0f0"></polygon><polygon points="373.95 272.85 376.85 274.52 376.85 285.8 373.95 284.12 373.95 272.85" style="fill:#ebebeb"></polygon><polygon points="379.75 266.94 376.85 265.27 376.85 285.8 379.75 284.12 379.75 266.94" style="fill:#e0e0e0"></polygon></g></g><g id="freepik--serum-bag--inject-52"><g id="freepik--Hanger--inject-52"><path d="M235.77,258.35a3.68,3.68,0,0,0,.07.7,1.69,1.69,0,0,0,.64,1h0a1.86,1.86,0,0,0,2-.15,5.93,5.93,0,0,0,2.68-4.65,1.92,1.92,0,0,0-.75-1.71h0l-.12-.07h0a1.69,1.69,0,0,0-1.14-.05,2.71,2.71,0,0,0-.66.29A5.93,5.93,0,0,0,235.77,258.35Z" style="fill:#455a64"></path><path d="M236.5,252.57a2.52,2.52,0,0,1,1.2-.36,1.49,1.49,0,0,1,.76.21l.06,0,1.74,1a1.69,1.69,0,0,0-1.14-.05,2.71,2.71,0,0,0-.66.29,5.93,5.93,0,0,0-2.69,4.65,3.68,3.68,0,0,0,.07.7,1.69,1.69,0,0,0,.64,1l-1.78-1,0,0-.15-.09-.05,0a2,2,0,0,1-.65-1.65A6,6,0,0,1,236.5,252.57Z" style="fill:#263238"></path><path d="M264.84,242.72a3.06,3.06,0,0,0,.08.7,1.58,1.58,0,0,0,.63,1l0,0a1.85,1.85,0,0,0,1.95-.15,6,6,0,0,0,2.69-4.66,1.9,1.9,0,0,0-.76-1.7h0l-.13-.07h0a1.63,1.63,0,0,0-1.14-.05,3.09,3.09,0,0,0-.66.29A5.91,5.91,0,0,0,264.84,242.72Z" style="fill:#455a64"></path><path d="M265.58,236.94a2.45,2.45,0,0,1,1.19-.36,1.4,1.4,0,0,1,.76.21l.07,0,1.73,1a1.63,1.63,0,0,0-1.14-.05,3.09,3.09,0,0,0-.66.29,5.91,5.91,0,0,0-2.69,4.65,3.06,3.06,0,0,0,.08.7,1.58,1.58,0,0,0,.63,1l-1.78-1,0,0-.15-.09,0,0a2,2,0,0,1-.66-1.65A5.93,5.93,0,0,1,265.58,236.94Z" style="fill:#263238"></path><path d="M259.66,264.45a3.08,3.08,0,0,1-.08.71,1.58,1.58,0,0,1-.64,1l0,0A1.89,1.89,0,0,1,257,266a5.93,5.93,0,0,1-2.69-4.66,1.9,1.9,0,0,1,.76-1.7h0l.13-.08h0a1.69,1.69,0,0,1,1.14,0,3.09,3.09,0,0,1,.66.29A5.92,5.92,0,0,1,259.66,264.45Z" style="fill:#455a64"></path><path d="M258.92,258.68a2.37,2.37,0,0,0-1.2-.37,1.4,1.4,0,0,0-.75.22l-.07,0-1.73,1a1.69,1.69,0,0,1,1.14,0,3.09,3.09,0,0,1,.66.29,5.92,5.92,0,0,1,2.69,4.64,3.08,3.08,0,0,1-.08.71,1.58,1.58,0,0,1-.64,1l1.78-1h0l.15-.09.05,0a2,2,0,0,0,.66-1.65A5.9,5.9,0,0,0,258.92,258.68Z" style="fill:#263238"></path><path d="M278.53,255.21a3,3,0,0,1-.08.7,1.64,1.64,0,0,1-.63,1h0a1.84,1.84,0,0,1-2-.15,5.94,5.94,0,0,1-2.69-4.65,1.92,1.92,0,0,1,.76-1.71h0l.13-.07h0a1.68,1.68,0,0,1,1.14,0,3.09,3.09,0,0,1,.66.29A6,6,0,0,1,278.53,255.21Z" style="fill:#455a64"></path><path d="M277.79,249.43a2.45,2.45,0,0,0-1.19-.36,1.49,1.49,0,0,0-.76.21l-.07,0-1.73,1a1.68,1.68,0,0,1,1.14,0,3.09,3.09,0,0,1,.66.29,6,6,0,0,1,2.69,4.65,3,3,0,0,1-.08.7,1.64,1.64,0,0,1-.63,1l1.77-1,0,0,.16-.09s0,0,0,0a2,2,0,0,0,.66-1.65A5.93,5.93,0,0,0,277.79,249.43Z" style="fill:#263238"></path><path d="M242.05,243.87a3.15,3.15,0,0,1-.08.71,1.61,1.61,0,0,1-.63,1l0,0a1.87,1.87,0,0,1-1.95-.16,5.93,5.93,0,0,1-2.69-4.65,1.93,1.93,0,0,1,.76-1.71h0l.13-.08h0a1.69,1.69,0,0,1,1.14,0,3.61,3.61,0,0,1,.66.28A6,6,0,0,1,242.05,243.87Z" style="fill:#455a64"></path><path d="M241.31,238.1a2.37,2.37,0,0,0-1.19-.37,1.49,1.49,0,0,0-.76.21l-.07,0-1.73,1a1.69,1.69,0,0,1,1.14,0,3.61,3.61,0,0,1,.66.28,6,6,0,0,1,2.69,4.65,3.15,3.15,0,0,1-.08.71,1.61,1.61,0,0,1-.63,1l1.78-1h0l.15-.1a.05.05,0,0,0,0,0,2,2,0,0,0,.66-1.65A5.9,5.9,0,0,0,241.31,238.1Z" style="fill:#263238"></path><polygon points="258.09 238.19 267.69 235.44 267.69 237.49 258.09 243.03 258.09 238.19" style="fill:#ebebeb"></polygon><polygon points="258.09 238.19 257.14 237.61 266.77 234.98 267.69 235.44 258.09 238.19" style="fill:#f5f5f5"></polygon><polygon points="253.94 244.31 240.34 239.21 240.34 237.14 253.94 238.35 253.94 244.31" style="fill:#ebebeb"></polygon><polygon points="240.34 237.14 241.34 236.87 254.75 237.74 253.94 238.35 240.34 237.14" style="fill:#f5f5f5"></polygon><path d="M253.58,243.65c0,1.54,4.73,1.54,4.73,0V225.82h-4.73Z" style="fill:#fafafa"></path><path d="M257.61,224.85a1,1,0,0,1,0,1.93,3.71,3.71,0,0,1-3.34,0,1,1,0,0,1,0-1.93A3.71,3.71,0,0,1,257.61,224.85Z" style="fill:#e0e0e0"></path><path d="M257.12,240.15l2.6,16.89h-1.78l-2.43-16.89A2.93,2.93,0,0,0,257.12,240.15Z" style="fill:#f5f5f5"></path><polygon points="255.51 240.15 255.51 244.79 257.94 259.9 257.94 257.04 255.51 240.15" style="fill:#ebebeb"></polygon><rect x="257.94" y="257.04" width="1.78" height="2.86" style="fill:#e0e0e0"></rect><polygon points="254.7 244.65 237.16 253.85 237.16 251.02 254.7 240.16 254.7 244.65" style="fill:#ebebeb"></polygon><path d="M254.7,240.16a1.87,1.87,0,0,1-1.12-.51l-17.51,10.63,1.09.74Z" style="fill:#f5f5f5"></path><polygon points="237.16 253.85 237.16 251.02 236.07 250.28 236.07 253.02 237.16 253.85" style="fill:#e0e0e0"></polygon><polygon points="276.82 250.6 258.08 244.18 258.08 239.97 276.82 247.77 276.82 250.6" style="fill:#ebebeb"></polygon><path d="M258.08,240c.15,0,.21-.31.23-.72l19.06,8.29-.55.23Z" style="fill:#f5f5f5"></path><polygon points="277.37 247.54 277.37 250.28 276.82 250.6 276.82 247.77 277.37 247.54" style="fill:#e0e0e0"></polygon><rect x="257.94" y="257.04" width="1.78" height="2.86" style="opacity:0.1"></rect><polygon points="237.16 253.85 237.16 251.02 236.07 250.28 236.07 253.02 237.16 253.85" style="opacity:0.1"></polygon><polygon points="277.37 247.54 277.37 250.28 276.82 250.6 276.82 247.77 277.37 247.54" style="opacity:0.1"></polygon><path d="M254.33,59.46V225.63a.81.81,0,0,0,.48.67,2.52,2.52,0,0,0,2.33,0,.81.81,0,0,0,.48-.67V59.46a1.65,1.65,0,0,0-2.81-1.17A1.62,1.62,0,0,0,254.33,59.46Z" style="fill:#455a64"></path><path d="M223.1,88a1,1,0,0,0,.51-.13l1.64-1a2.27,2.27,0,0,1,2.28,0,4.34,4.34,0,0,0,4.3,0l.9-.53a4.28,4.28,0,0,0,1.54-1.51l2.6-4.34a2.17,2.17,0,0,1,.82-.8l33.58-19.4a2.32,2.32,0,0,1,2.28,0,4.29,4.29,0,0,0,4.3,0l.88-.51a4.22,4.22,0,0,0,1.57-1.57l2.41-4.17a2.36,2.36,0,0,1,.83-.83l2.53-1.46a1,1,0,0,0-1-1.75l-2.53,1.46A4.22,4.22,0,0,0,281,53.07l-2.41,4.17a2.28,2.28,0,0,1-.83.83l-.88.51a2.27,2.27,0,0,1-2.28,0,4.34,4.34,0,0,0-4.3,0L236.68,78a4.37,4.37,0,0,0-1.54,1.51l-2.61,4.35a2.3,2.3,0,0,1-.81.8l-.91.52a2.25,2.25,0,0,1-2.27,0,4.34,4.34,0,0,0-4.3,0l-1.65.95A1,1,0,0,0,223.1,88Z" style="fill:#455a64"></path><path d="M223.42,123l-.22,1.43c0,.36-.32.46-.61.24s-.83-.23-.89.31l-.59,5.2a1.8,1.8,0,0,0,.6,1.45l2.32,1.91c.39.32.77.2.85-.26l.9-4.93a1.83,1.83,0,0,0-.59-1.52l-.2-.17a1.32,1.32,0,0,1-.44-1.1l.14-.93c.08-.51.47-.6.88-.22s.81.72,1.25,1.08a1.78,1.78,0,0,1,.59,1.29l0,8.34a2.2,2.2,0,0,0,1,2c.68.39,1,0,1.07-.72l0-8c0-.5.33-.73.72-.49.23.15.47.29.71.43a22.16,22.16,0,0,0,3.61,1.72,8.39,8.39,0,0,0,.8.26,1.45,1.45,0,0,1,.89,1.16c.06.51.1.93.1.93.05.44-.15.72-.46.62-.46-.14-.78.21-.69.87l.9,6.42a1.74,1.74,0,0,0,.9,1.35l2.51.92c.42.15.71-.2.66-.79l-.56-6.28a1.79,1.79,0,0,0-.9-1.44l-.23-.08a1.33,1.33,0,0,1-.67-1l-.15-1.33c-.05-.46.15-.77.46-.75,3.63.19,4.73-2.09,5-3.71.73-4.29-.12-18.47-.63-24.57s-2.19-8.17-3.6-9.7A17.46,17.46,0,0,1,235,87.73c-1-2.34-1.79-4.34-4.1-5.67s-3.08-.22-4.1.93-2.44.79-3.85.69-2.31.93-2.82,6.44-1.86,18.62-1.41,22.95a18,18,0,0,0,4.28,8.65A1.71,1.71,0,0,1,223.42,123Zm6.09-36.91c0-1,.62-1.51,1.4-1.06a3.35,3.35,0,0,1,1.4,2.68c0,1-.63,1.5-1.4,1.06A3.35,3.35,0,0,1,229.51,86.07Z" style="fill:#fafafa"></path><path d="M221,95.78c.55-5.63,1.21-10.41,3.77-8.82s8.45,5.09,10.27,5.93a9.17,9.17,0,0,1,4.59,4.91c1.18,3.69,1.45,9.34,1.53,12.19s-6.58-.55-11.6-3.36S221,95.78,221,95.78Z" style="fill:#e0e0e0"></path><path d="M240.33,109a.31.31,0,0,1,.06.16c.33,5.65.66,12.28.82,15.45h0a3.45,3.45,0,0,1-3.5,3.63c-1.61,0-3.83-.64-6.8-2.36-7.63-4.4-10-9.63-10.44-11.62h0a18.88,18.88,0,0,1-.34-3A116.94,116.94,0,0,1,220.91,96a.32.32,0,0,1,.33-.27,6.43,6.43,0,0,1,3.76,2c2.47,2.25,5,5.33,10.84,8C239,107.25,240.1,108.68,240.33,109Z" style="fill:#0E006B"></path><path d="M240.33,109a.31.31,0,0,1,.06.16c.33,5.65.66,12.28.82,15.45h0a3.45,3.45,0,0,1-3.5,3.63c-1.61,0-3.83-.64-6.8-2.36-7.63-4.4-10-9.63-10.44-11.62h0a18.88,18.88,0,0,1-.34-3A116.94,116.94,0,0,1,220.91,96a.32.32,0,0,1,.33-.27,6.43,6.43,0,0,1,3.76,2c2.47,2.25,5,5.33,10.84,8C239,107.25,240.1,108.68,240.33,109Z" style="fill:#fff;opacity:0.5"></path><path d="M228.4,130.08a.6.6,0,0,0,.6-.58l.16-6a.59.59,0,0,0-.58-.61h0a.6.6,0,0,0-.59.58l-.17,6a.61.61,0,0,0,.58.61Z" style="fill:#0E006B"></path><g style="opacity:0.5"><path d="M228.4,130.08a.6.6,0,0,0,.6-.58l.16-6a.59.59,0,0,0-.58-.61h0a.6.6,0,0,0-.59.58l-.17,6a.61.61,0,0,0,.58.61Z" style="fill:#fff"></path></g><path d="M240.33,109a.31.31,0,0,1,.06.16c.33,5.65.66,12.28.82,15.45a3.45,3.45,0,0,1-3.5,3.63c-1.61,0-3.83-.64-6.8-2.36-7.63-4.4-10-9.63-10.44-11.62a18.88,18.88,0,0,1-.34-3c0-.43,0-.89,0-1.38.23,4.87,6.42,11,11.88,12.25s4.39-5.13,3.79-16.39l.06,0C239,107.25,240.1,108.68,240.33,109Z" style="fill:#0E006B;opacity:0.30000000000000004"></path><path d="M223.55,112.39a69.38,69.38,0,0,0,12.78,7.37c.18.08.33,0,.33-.29v-4.21a.88.88,0,0,0-.35-.68q-6.36-4.1-12.74-7.36c-.19-.1-.34,0-.34.29v4.21A.91.91,0,0,0,223.55,112.39Z" style="fill:#fff"></path><path d="M224.79,88.86c4,2,6.7,3.59,6.76,4.67s-5.33-1.74-7-.32-1.69.57-1.69-1S223.15,88,224.79,88.86Z" style="fill:#fafafa"></path><path d="M230.81,85.15a2.25,2.25,0,0,1-2.27,0,4.34,4.34,0,0,0-4.3,0l-1.65.95A1,1,0,0,0,223.1,88a1,1,0,0,0,.51-.13l1.64-1a2.27,2.27,0,0,1,2.28,0,4.34,4.34,0,0,0,4.3,0" style="fill:#455a64"></path></g></g><g id="freepik--character-2--inject-52"><g id="freepik--Character--inject-52"><g id="freepik--Bottom--inject-52"><path d="M380.67,313.77c.32,3,1,5,2.38,6.67s3.95,2,6.5,1.28,5.79-2.42,6.44-5.11a13.61,13.61,0,0,0-.24-7.26Z" style="fill:#455a64"></path><path d="M390.15,290.83c1.06,0,1.51,4.05,2.25,8.09.8,4.34,2.49,6,3.19,9.57.8,4.06.59,5.92-1.11,8.56s-8,5.61-11.2,2.32c-2.65-2.69-2.86-5.9-2.76-10a84.53,84.53,0,0,0-.11-10.48c-.31-3.06-.67-6,.24-6.45.08.45.17,1,.26,1.46s.23,2,.82,2a5.09,5.09,0,0,0,0-1.17,1.22,1.22,0,0,1,.26-1,2.35,2.35,0,0,1,1.16-.53c1-.25,2.08-.49,3.13-.65.52-.09,1.05-.15,1.58-.19a5,5,0,0,1,1.34,0,.83.83,0,0,1,.59.37,1,1,0,0,1,.07.46,3,3,0,0,0,.16.84c0,.11.15.25.3.21a.25.25,0,0,0,.17-.26c0-.5,0-.85-.07-1.43,0-.26-.05-.62-.06-.89A1.81,1.81,0,0,0,390.15,290.83Z" style="fill:#0E006B"></path><path d="M390.15,290.83c1.06,0,1.51,4.05,2.25,8.09.8,4.34,2.49,6,3.19,9.57.8,4.06.59,5.92-1.11,8.56s-8,5.61-11.2,2.32c-2.65-2.69-2.86-5.9-2.76-10a84.53,84.53,0,0,0-.11-10.48c-.31-3.06-.67-6,.24-6.45.08.45.17,1,.26,1.46s.23,2,.82,2a5.09,5.09,0,0,0,0-1.17,1.22,1.22,0,0,1,.26-1,2.35,2.35,0,0,1,1.16-.53c1-.25,2.08-.49,3.13-.65.52-.09,1.05-.15,1.58-.19a5,5,0,0,1,1.34,0,.83.83,0,0,1,.59.37,1,1,0,0,1,.07.46,3,3,0,0,0,.16.84c0,.11.15.25.3.21a.25.25,0,0,0,.17-.26c0-.5,0-.85-.07-1.43,0-.26-.05-.62-.06-.89A1.81,1.81,0,0,0,390.15,290.83Z" style="fill:#fff;opacity:0.9"></path><path d="M395.31,307.34c.12.58.88,4.46-.43,5.28s-2.3-2.13-2.3-2.13-3.4-.55-8.25,1.6c.27.61-.42,2.78-1.78,2.45s-2-4.79-2-4.85c-.07,4,.2,7.07,2.77,9.68,3.24,3.29,9.49.32,11.2-2.32s1.91-4.5,1.11-8.56C395.51,308.08,395.41,307.7,395.31,307.34Z" style="fill:#0E006B"></path><path d="M395.31,307.34c.12.58.88,4.46-.43,5.28s-2.3-2.13-2.3-2.13-3.4-.55-8.25,1.6c.27.61-.42,2.78-1.78,2.45s-2-4.79-2-4.85c-.07,4,.2,7.07,2.77,9.68,3.24,3.29,9.49.32,11.2-2.32s1.91-4.5,1.11-8.56C395.51,308.08,395.41,307.7,395.31,307.34Z" style="fill:#fff;opacity:0.8"></path><path d="M392.2,310.78c.07,1.49,1.88.83,1.89-1.28s-1.58-7-1.69-10.58c-.74-4-1.19-8.11-2.25-8.09,0,.05.06.9.07.95l.15,1.27a8.38,8.38,0,0,1,.09.89c.12,3,.85,8.85,1.26,11.59A38.47,38.47,0,0,1,392.2,310.78Z" style="fill:#0E006B;opacity:0.30000000000000004"></path><path d="M384.9,312a36.85,36.85,0,0,1-1.18-5.13c-.46-2.72-1.57-8.41-2.39-11.34-.18-.64-.35-1.37-.39-1.61-.12-.64-.19-1-.27-1.4,0-.06,0-.09,0-.11-.71.28-.65,2-.48,4,.17,1.18.46,2.63.85,4.38,1,3.47,1,8.62,1.68,10.62S385.29,313.43,384.9,312Z" style="fill:#0E006B;opacity:0.30000000000000004"></path><path d="M384.23,312.22l.14-.05a15.61,15.61,0,0,1,8.12-1.37.43.43,0,0,0,.47-.26.3.3,0,0,0-.29-.37,16.33,16.33,0,0,0-8.68,1.47.3.3,0,0,0-.15.44A.41.41,0,0,0,384.23,312.22Z" style="fill:#fafafa"></path><path d="M383.24,309.06a.33.33,0,0,0,.13,0,19.32,19.32,0,0,1,9.09-1.53.42.42,0,0,0,.46-.27.31.31,0,0,0-.31-.36,20,20,0,0,0-9.6,1.62.31.31,0,0,0-.17.44A.39.39,0,0,0,383.24,309.06Z" style="fill:#fafafa"></path><path d="M392.1,304.45a.45.45,0,0,0,.33-.24.3.3,0,0,0-.26-.38,16.8,16.8,0,0,0-9.6,1.54.3.3,0,0,0-.15.44.43.43,0,0,0,.54.09s4.53-2.29,9-1.45Z" style="fill:#fafafa"></path><path d="M391.73,301.58a.4.4,0,0,0,.33-.24.29.29,0,0,0-.25-.38A15.05,15.05,0,0,0,382,302.5a.3.3,0,0,0-.12.45.46.46,0,0,0,.54.06,14.28,14.28,0,0,1,9.12-1.43Z" style="fill:#fafafa"></path><path d="M391.3,298.36a.45.45,0,0,0,.33-.23.29.29,0,0,0-.25-.39c-4.93-1.06-9.65,1.52-9.85,1.63a.3.3,0,0,0-.13.45.44.44,0,0,0,.54.07s4.61-2.52,9.19-1.54A.33.33,0,0,0,391.3,298.36Z" style="fill:#fafafa"></path><path d="M330,304.88a2.62,2.62,0,0,0,.7,2.82,14.29,14.29,0,0,0,9.84,1.62c4.82-.77,7.39-2.24,9.27-3.8s4.51-3.76,6.68-4.29a13.91,13.91,0,0,0,4.82-2c.63-.6.43-3.14.43-3.14Z" style="fill:#455a64"></path><path d="M359.36,286.32a.77.77,0,0,1,.76.57c.17.69.42,2.73.79,3.87a19,19,0,0,1,.73,6.18c-.21,1.32-3.5,2.36-5.59,3.19a27.59,27.59,0,0,0-6.7,4.23,20.55,20.55,0,0,1-10.08,3.9c-3.74.13-8-.8-9-2.34-1.28-1.91-2.24-4.14,3.2-6.71,1-.49,4.64-2.63,5.86-3.4,3.32-2.09,5.63-4,7.05-7.49a1.91,1.91,0,0,1,.76-1.08,1.85,1.85,0,0,1,1.07-.14,39.81,39.81,0,0,1,5.49.72c.75.3,1.82.63,1.84,1.5a2.51,2.51,0,0,1-.17.89c-.06.18-.1.42.07.51s.38,0,.52-.15a12.8,12.8,0,0,0,1.42-1.7,5.62,5.62,0,0,1,.84-.85,7.39,7.39,0,0,0,.93-.6C359.45,287.11,359.36,286.73,359.36,286.32Z" style="fill:#0E006B"></path><path d="M359.36,286.32a.77.77,0,0,1,.76.57c.17.69.42,2.73.79,3.87a19,19,0,0,1,.73,6.18c-.21,1.32-3.5,2.36-5.59,3.19a27.59,27.59,0,0,0-6.7,4.23,20.55,20.55,0,0,1-10.08,3.9c-3.74.13-8-.8-9-2.34-1.28-1.91-2.24-4.14,3.2-6.71,1-.49,4.64-2.63,5.86-3.4,3.32-2.09,5.63-4,7.05-7.49a1.91,1.91,0,0,1,.76-1.08,1.85,1.85,0,0,1,1.07-.14,39.81,39.81,0,0,1,5.49.72c.75.3,1.82.63,1.84,1.5a2.51,2.51,0,0,1-.17.89c-.06.18-.1.42.07.51s.38,0,.52-.15a12.8,12.8,0,0,0,1.42-1.7,5.62,5.62,0,0,1,.84-.85,7.39,7.39,0,0,0,.93-.6C359.45,287.11,359.36,286.73,359.36,286.32Z" style="fill:#fff;opacity:0.9"></path><path d="M349.35,304.36c.93-.76,1.93-1.51,2.93-2.18h0s-6.36,3.88-9.06,2.35a2,2,0,0,1-1-2.72c0-.41-6.09-3.05-7.74-3.16h0c-.45.25-.83.45-1.07.56-5.44,2.57-4.48,4.8-3.2,6.71,1,1.54,4.13,2.64,8.95,2.44A21.11,21.11,0,0,0,349.35,304.36Z" style="fill:#0E006B;opacity:0.8"></path><path d="M349.35,304.36c.93-.76,1.93-1.51,2.93-2.18h0s-6.36,3.88-9.06,2.35a2,2,0,0,1-1-2.72c0-.41-6.09-3.05-7.74-3.16h0c-.45.25-.83.45-1.07.56-5.44,2.57-4.48,4.8-3.2,6.71,1,1.54,4.13,2.64,8.95,2.44A21.11,21.11,0,0,0,349.35,304.36Z" style="fill:#fff;opacity:0.8"></path><path d="M342.66,300.6c-3.39,1.4-1.9,1.92-.93,2s6.64-3.24,10.07-5.94,5.79-5.81,7.12-6.85c.49-.38,1-.85,1.5-1.29-.12-.69-.22-1.31-.3-1.64a.77.77,0,0,0-.76-.57c0,.41.09.79-.23,1.1a7.39,7.39,0,0,1-.93.6,5.62,5.62,0,0,0-.84.85,12.8,12.8,0,0,1-1.42,1.7C353.07,294.17,346.05,299.2,342.66,300.6Z" style="fill:#0E006B;opacity:0.30000000000000004"></path><path d="M342,302.14a.34.34,0,0,0,.21-.08.29.29,0,0,0,0-.44c-1-1-5.73-3.43-8.25-3.07a.31.31,0,0,0-.29.35.32.32,0,0,0,.38.26c2.36-.33,6.84,2,7.65,2.88A.38.38,0,0,0,342,302.14Z" style="fill:#fafafa"></path><path d="M344.89,300.33a.37.37,0,0,0,.22-.08.3.3,0,0,0,0-.44c-1-1-5.73-3.43-8.26-3.07a.32.32,0,0,0-.29.35.33.33,0,0,0,.39.26c2.36-.32,6.84,2,7.64,2.88A.38.38,0,0,0,344.89,300.33Z" style="fill:#fafafa"></path><path d="M347.83,298.61a.37.37,0,0,0,.22-.08.3.3,0,0,0,0-.44c-1-1-5.74-3.43-8.26-3.07a.31.31,0,0,0-.29.35.33.33,0,0,0,.39.26c2.36-.33,6.84,2.05,7.64,2.88A.38.38,0,0,0,347.83,298.61Z" style="fill:#fafafa"></path><path d="M350.54,296.67a.37.37,0,0,0,.22-.08.3.3,0,0,0,0-.44c-1-1-5.74-3.43-8.26-3.07a.32.32,0,0,0-.29.36.35.35,0,0,0,.39.26c2.35-.33,6.84,2,7.64,2.87A.38.38,0,0,0,350.54,296.67Z" style="fill:#fafafa"></path><path d="M353.2,294.73a.31.31,0,0,0,.2-.07.29.29,0,0,0,0-.44c-1.4-1.48-6.31-3.44-8.84-3.08a.32.32,0,0,0-.28.36.33.33,0,0,0,.38.26c2.28-.32,7,1.55,8.22,2.87A.36.36,0,0,0,353.2,294.73Z" style="fill:#fafafa"></path><path d="M383.74,160.11c4.68,9.26,6.21,13.7,6.92,30.76s1,47.07,1,47.07a148,148,0,0,1,2.44,19.57c.84,12.28-.53,38.55-.53,38.55s0,2.33-7.07,3.08-7.6-1.51-7.6-1.51-5.27-32.21-8.06-45.21-5-25.32-5-25.32l-.91,12.53s1.32,5.74.6,17.07-4.21,33.2-4.21,33.2-8,3.46-15.53-.64c0,0-2.87-41.36-3.46-62.35s-.82-44.5,2.14-59.32Z" style="fill:#0E006B"></path><path d="M383.74,160.11c4.68,9.26,6.21,13.7,6.92,30.76s1,47.07,1,47.07a148,148,0,0,1,2.44,19.57c.84,12.28-.53,38.55-.53,38.55s0,2.33-7.07,3.08-7.6-1.51-7.6-1.51-5.27-32.21-8.06-45.21-5-25.32-5-25.32l-.91,12.53s1.32,5.74.6,17.07-4.21,33.2-4.21,33.2-8,3.46-15.53-.64c0,0-2.87-41.36-3.46-62.35s-.82-44.5,2.14-59.32Z" style="fill:#fff;opacity:0.6000000000000001"></path><g style="opacity:0.5"><path d="M365.8,227.1l-4.28-30.42s-9.44-1.27-14-6.59a18.25,18.25,0,0,0,11.12,9.18l5.58,27.16.71,13.2Z" style="fill:#0E006B"></path></g></g><g id="freepik--Top--inject-52"><g id="freepik--Arm--inject-52"><path d="M309.42,138.38c1.4,1.8,4.21,3.12,5.15,5.4.5,1.23.95,3,2.83,3.76.85.34,2.15.65,3.27,1,.62,4.35.3,8.19-3.43,10.19-.7-.29-1.42-.57-2.15-.84-1.68-.54-3.37-1-4.9-1.37-3.49-.8-7.44-3-10.42-5a8.41,8.41,0,0,1-2-2.17,6.47,6.47,0,0,1-.77-1.82c-.3-1.12-1.3-1.9-1.44-3.09-.06-.5.2-1.17.08-1.64,0-.12-.21-.29-.28-.4a2.5,2.5,0,0,1-.4-.93,4.4,4.4,0,0,1,.1-2.16,4.37,4.37,0,0,0,.4-1.35,4.52,4.52,0,0,0-.63-1.49c-.15-.34-.55-.92-.36-1.29.4-.81,1.53-.61,2.19-.3a8.37,8.37,0,0,1,2.35,2.25A24.11,24.11,0,0,0,301.8,140a30.52,30.52,0,0,0,3.69,2.43,10,10,0,0,0,2.35,1.13c.48.13,1.15.2.87-.53a9.32,9.32,0,0,0-.9-1.35,7.37,7.37,0,0,1-1.05-3c-.17-1.57.31-2.52.86-2.65S308.33,137,309.42,138.38Z" style="fill:#b16668"></path><path d="M307.78,145.68c0,2.69,2.29,5.23,4.18,6.2C308.67,151.84,306.88,148.62,307.78,145.68Z" style="fill:#9a4a4d"></path><path d="M356.5,122.55c-5.36.6-8.13.85-10.24,3-2.5,2.61-6.67,11.47-8.45,15.14s-4.9,10.39-4.9,10.39L318.86,148s.91,2,.18,6.07c-.65,3.6-2.46,4.62-2.46,4.62s3,1.42,8.37,3.41,10.45,3.44,12.53,3.13,3.45-1.76,6-4.91,12.05-19.77,12.05-19.77Z" style="fill:#455a64"></path><path d="M356.51,121.76c-4.55,0-8.16,1-10.37,3.32s-5.49,8.87-8,13.83-3.55,7.08-3.55,7.08,8.31,4.16,12.79,9.45l10.45-18S358.44,125.11,356.51,121.76Z" style="fill:#0E006B"></path><path d="M356.51,121.76c-4.55,0-8.16,1-10.37,3.32s-5.49,8.87-8,13.83-3.55,7.08-3.55,7.08,8.31,4.16,12.79,9.45l10.45-18S358.44,125.11,356.51,121.76Z" style="fill:#fff;opacity:0.6000000000000001"></path><path d="M332.91,151.13c3.58.65,5.42,1.91,7,3.89-.51-2.5-2.38-4.23-6.44-5Z" style="fill:#37474f"></path></g><path d="M359.63,121.62a90.72,90.72,0,0,1,13.64,0s9.4,1.49,11.18,2,2.1,7.13,2,13.74c-.15,7.54-.12,18.55-.12,18.55,1.2,9.29,3.17,15.4,3.67,23.24-14,9.6-36.56,9.49-47.34.8.79-8.78,1-13.68,1.3-19.82,0,0,0-5.12.31-8.55a15.65,15.65,0,0,1-2.48-7.49c-.2-4.44,1.71-9.88,5.89-14.75a46.09,46.09,0,0,1,8.86-7.56Z" style="fill:#0E006B"></path><path d="M359.63,121.62a90.72,90.72,0,0,1,13.64,0s9.4,1.49,11.18,2,2.1,7.13,2,13.74c-.15,7.54-.12,18.55-.12,18.55,1.2,9.29,3.17,15.4,3.67,23.24-14,9.6-36.56,9.49-47.34.8.79-8.78,1-13.68,1.3-19.82,0,0,0-5.12.31-8.55a15.65,15.65,0,0,1-2.48-7.49c-.2-4.44,1.71-9.88,5.89-14.75a46.09,46.09,0,0,1,8.86-7.56Z" style="fill:#fff;opacity:0.5"></path><path d="M376.05,146.63a9.36,9.36,0,0,1-7.53,6.84c-5.89,1.2-11-2.45-11-2.45s3.46,5.91,11.39,4.06S376.05,146.63,376.05,146.63Z" style="fill:#0E006B;opacity:0.30000000000000004"></path><g id="freepik--Head--inject-52"><g id="freepik--head--inject-52"><path d="M373.15,114.47c-2.79-1.75-5.58-2.69-8.37-4.44-2.3-1.44-4.57-3-6.94-4.3-1.94-1.07-2.81-3.18-4.6-4.51a47.05,47.05,0,0,0-4.15-2.35,9.77,9.77,0,0,1-1.17-.86c-.09-.07-1.48-1.52-1.07-1.6a3.66,3.66,0,0,1-2.2-.1,1.71,1.71,0,0,1-1.09-1.77c.54.48,1.46-.05,1.66-.74.44-1.49-.7-2.87.1-4.35a5.81,5.81,0,0,1,2.46-2.22A5.36,5.36,0,0,0,350,84.56c2.15-4.32,7-2.86,10.85-2.76a15.08,15.08,0,0,0,3.84-.54A10.41,10.41,0,0,1,375.57,86a8.26,8.26,0,0,1,1,2.17,3.31,3.31,0,0,0,1,1.65,11,11,0,0,1,2.33,4.53,21.7,21.7,0,0,1-.06,10C378.61,109.61,375.56,110,373.15,114.47Z" style="fill:#263238"></path><path d="M376.24,100.57c-3.07-1.21-4.47,2-4.47,2-1.92,1.3-2.83-1.25-3.22-2.45-1.43-4.46-.73-7.67-4.5-9-1.72-.59-3.31.82-4.84,1.82a3.65,3.65,0,0,1-2.92.77c-.94-.22-2.7-1.63-3.57-2.06-2.5-1.22-3.32,1.82-3.85,5.11a41.58,41.58,0,0,0-.19,8c.52,8.77,1.92,11.84,5.32,13.51,1.52.75,3.37.9,6.29.54l.15,2.6-.29.05a12.43,12.43,0,0,0,.15,7.89s6.14.77,14.29-7.59c-.73-.21-1.09-.2-1.13-.72-.06-.83-.54-11.5-.54-11.5.58.73,2.7.94,4-.82C379.31,105.66,379.19,101.72,376.24,100.57Z" style="fill:#b16668"></path><path d="M360.29,118.86c2.83-.54,8-2.32,8.74-4.7a4.49,4.49,0,0,1-1.93,3.66c-1.79,1.47-6.72,2.53-6.72,2.53Z" style="fill:#9a4a4d"></path></g><path d="M360.91,109.59,356.79,111a2.13,2.13,0,0,0,2.7,1.45A2.27,2.27,0,0,0,360.91,109.59Z" style="fill:#9a4a4d"></path><path d="M358.54,112.49a2.05,2.05,0,0,0,.95-.08,2.23,2.23,0,0,0,1.5-1.88A3.07,3.07,0,0,0,358.54,112.49Z" style="fill:#ffa8a7"></path><path d="M350.66,97.82l2.92-.9a1.47,1.47,0,0,0-1.86-1A1.6,1.6,0,0,0,350.66,97.82Z" style="fill:#263238"></path><path d="M363.77,98.15l-2.93-.85a1.47,1.47,0,0,1,1.84-1.07A1.6,1.6,0,0,1,363.77,98.15Z" style="fill:#263238"></path><path d="M350.16,101.73a1.24,1.24,0,1,0,1.29-1.24A1.26,1.26,0,0,0,350.16,101.73Z" style="fill:#263238"></path><path d="M360.29,102.23a1.27,1.27,0,0,0,1.19,1.33,1.29,1.29,0,0,0,.11-2.58A1.29,1.29,0,0,0,360.29,102.23Z" style="fill:#263238"></path><path d="M346.21,99a2.22,2.22,0,0,0,.42,1.26,1,1,0,0,1,.18.46,21.34,21.34,0,0,0,.42,3.45,3.42,3.42,0,0,0,3.45,2.55,5.1,5.1,0,0,0,1.27-.09l.09,0a3.76,3.76,0,0,0,1.07-.39l.06,0,.09-.06.12-.07.11-.08.12-.09.11-.09.22-.21a5.31,5.31,0,0,0,.93-1.31c.63-1.2.63-2.89,1.51-3.07h.22c1.18,0,.91,1.86,1.47,3.19a4.18,4.18,0,0,0,4.17,2.75h.61l.63-.08.2,0,.19,0,.12,0a4,4,0,0,0,.72-.32l.25-.16a3.62,3.62,0,0,0,.42-.36,4.6,4.6,0,0,0,.85-1.22,22.38,22.38,0,0,0,.88-3.42,1.65,1.65,0,0,1,.21-.49,2.35,2.35,0,0,0,.64-1.21,1,1,0,0,0-.66-1.07l-.62-.09a19.06,19.06,0,0,0-6.17,0c-2,.5-2.72,1.12-3.82,1.09s-1.63-.71-3.42-1.34a16.61,16.61,0,0,0-5.74-.39l-.58,0A1.1,1.1,0,0,0,346.21,99Zm12.8,1.44a1.74,1.74,0,0,1,.59-.45l.1-.06.06,0,.29-.12.26-.1a6.53,6.53,0,0,1,.85-.25l.34-.08q.44-.07.87-.12h.2a4.87,4.87,0,0,1,3.46.73c.43.42.13,2.18-.09,3.08l0,.07,0,.07-.1.37-.07.22h0a3.73,3.73,0,0,1-.15.38h0l-.06.13,0,.08-.05.09-.06.1a.35.35,0,0,1-.07.12.57.57,0,0,1-.08.13l-.09.13a3.13,3.13,0,0,1-2.76,1.25A3.48,3.48,0,0,1,359.6,105h0a3.92,3.92,0,0,1-.8-1.86A4.19,4.19,0,0,1,359,100.43Zm-11-1.11a2,2,0,0,1,.49-.28l0,0,.21-.07.13,0,.11,0,.07,0h0l.1,0,.44-.06.24,0h.77a7.35,7.35,0,0,1,.86.1,4.91,4.91,0,0,1,3,1.42,4.45,4.45,0,0,1-.13,2.74,4.12,4.12,0,0,1-.23.67s0,0,0,0l0,.07,0,0,0,.08-.09.16a1.09,1.09,0,0,1-.08.15l0,.05-.07.09-.06.09h0a3.24,3.24,0,0,1-3,1.28,3.13,3.13,0,0,1-1.4-.38,3.73,3.73,0,0,1-1.56-3C347.61,101.48,347.53,99.7,348,99.32Z" style="fill:#37474f"></path><path d="M367.08,99.11l6,1.85a5.12,5.12,0,0,0-1.12,1.31l-4.83-1.41Z" style="fill:#37474f"></path><path d="M357,101.3l-.69,7.82-4.46-1.67,4.65-6.27A.93.93,0,0,1,357,101.3Z" style="fill:#9a4a4d"></path></g><path d="M354.22,132.22v-2.44a35.86,35.86,0,0,0,6.08-.38c7.65-.93,11.7-5.17,14.29-7.59l2.61.42c-2,3.1-7.79,7.86-13.65,9.23S354.22,132.22,354.22,132.22Z" style="fill:#0E006B"></path><path d="M354.22,132.22v-2.44a35.86,35.86,0,0,0,6.08-.38c7.65-.93,11.7-5.17,14.29-7.59l2.61.42c-2,3.1-7.79,7.86-13.65,9.23S354.22,132.22,354.22,132.22Z" style="fill:#fff;opacity:0.30000000000000004"></path><path d="M360.3,129.4c-.9.13-1.76.23-2.56.29,0,0-.83-6.18.59-8l1.82-.17S359,126.41,360.3,129.4Z" style="fill:#0E006B"></path><path d="M360.3,129.4c-.9.13-1.76.23-2.56.29,0,0-.83-6.18.59-8l1.82-.17S359,126.41,360.3,129.4Z" style="fill:#fff;opacity:0.2"></path><path d="M372.33,139.72c.07-.55.33-1.72.67-3.2a65.17,65.17,0,0,0,1.78-14.79,2,2,0,0,0-.85-1.56,3.6,3.6,0,0,1-.55-.48,94.33,94.33,0,0,1-1.4,16.6c-.34,1.51-.61,2.7-.68,3.31Z" style="fill:#0E006B"></path><path d="M369.43,162.87a5.66,5.66,0,0,1-3.24.72l.14-.72a4.49,4.49,0,0,0,2.49-.52,8.78,8.78,0,0,1-1.69-2.08c-.93-1.67-1.85-12.77-.69-15.15,1-2,3.68-6.22,5.52-6.1H372c1.84.2,3.61,5,4.14,7.15.62,2.57-2.65,13.22-3.92,14.66a8.74,8.74,0,0,1-2.09,1.66,4.59,4.59,0,0,0,2.32,1l0,.73h-.09A5.86,5.86,0,0,1,369.43,162.87Zm-2.33-17.43c-1.07,2.19-.2,12.93.67,14.48a8.26,8.26,0,0,0,1.76,2.08,8.38,8.38,0,0,0,2.16-1.66c1.18-1.33,4.33-11.63,3.75-14-.7-2.89-2.43-6.47-3.51-6.59h0C370.82,139.68,368.39,142.79,367.1,145.44Z" style="fill:#455a64"></path><path d="M365.2,163.11a1.06,1.06,0,0,0,.95,1.18,1.07,1.07,0,1,0,.23-2.12A1.06,1.06,0,0,0,365.2,163.11Z" style="fill:#263238"></path><path d="M371.39,163.78a1.07,1.07,0,1,0,1.18-.94A1.06,1.06,0,0,0,371.39,163.78Z" style="fill:#263238"></path><path d="M366,149.88h.61a.24.24,0,0,0,.24-.24,12.49,12.49,0,0,1,.46-4.11c1.25-2.55,3.69-5.69,4.65-5.59s2.68,3.7,3.35,6.46a12,12,0,0,1-.43,4.11.24.24,0,0,0,.18.29l.6.13a.25.25,0,0,0,.29-.19,12.64,12.64,0,0,0,.43-4.6c-.37-1.48-2.15-7-4.3-7.29s-5.08,4.83-5.75,6.2a12.43,12.43,0,0,0-.57,4.59A.25.25,0,0,0,366,149.88Z" style="fill:#0E006B"></path><path d="M360.37,120.19l.07,1.27,0,0a8.11,8.11,0,0,0-1.27.89,8.85,8.85,0,0,0-1.42,1.49,17,17,0,0,0-1.84,3.62c-1.51,3.57-2.06,9.64-2.15,16.67l-1.18.18c0-2.51-.14-10.83,2.2-17.11C356.3,123.05,358.64,121,360.37,120.19Z" style="fill:#0E006B"></path><path d="M356.46,143a3.49,3.49,0,1,1-3.81-3.15A3.49,3.49,0,0,1,356.46,143Z" style="fill:#455a64"></path><path d="M355,143.18a2,2,0,1,1-2.17-1.79A2,2,0,0,1,355,143.18Z" style="fill:#37474f"></path><polygon points="327.83 152.01 354.3 158.79 364.08 188.71 363.56 189.37 338.34 182.42 327.31 152.67 327.83 152.01" style="fill:#0E006B"></polygon><polygon points="353.78 159.45 363.56 189.37 364.08 188.71 354.3 158.79 353.78 159.45" style="opacity:0.35000000000000003"></polygon><polygon points="327.31 152.67 353.78 159.45 363.56 189.37 338.34 182.42 327.31 152.67" style="opacity:0.25"></polygon><g style="opacity:0.1"><path d="M335.6,158.24s-.14-.45-.3-1,1.36-.4,3.42.36l4.76,1c2,.76,4,1.29,4.15,1.84l.3,1Z"></path></g><path d="M333.66,153.74c-.1-.34.49-.32,1.33-.18l1.52.38s-.73-1.44,2.85-.8c3.94.7,4.19,2.62,4.19,2.62a19.48,19.48,0,0,0,1.91.51c1.32.3,1.48.54,1.62.89l.25.63-13.5-3.45S333.77,154.09,333.66,153.74Z" style="fill:#263238"></path><path d="M335.21,155.59c1.26.44,1.79.66,2.05,1.52s.37,1.39.37,1.39l7.05,2.08s-.49-1.43-.63-1.91.77-.57,2-.13l-.39-1.19-10.85-2.77Z" style="fill:#37474f"></path><path d="M335.25,158.29s-.14-.45-.3-1,1.36-.39,3.42.37l4.76,1c2.05.76,4,1.29,4.15,1.84l.3,1Z" style="fill:#37474f"></path><path d="M396.91,138.59c-2.62-10.17-5.87-12.78-11.31-13.91-5.47,8.73-2.23,21.58-2.23,21.58l4.24,14.85c-1,.88-15.7,10-18.38,11a7.6,7.6,0,0,1-3.8-.31c-2.64-.83-4.47-.53-7-.35L359.6,175c-4,1.45-8.29,1.42-12.49,1.56-.41,0-.9.08-1.06.45a.88.88,0,0,0,.37.95,4.38,4.38,0,0,1,.83.71c.31.47.19,1.11.29,1.67a4.29,4.29,0,0,0,1.31,2.12,10,10,0,0,0,2.12,1.89c2.59,1.55,6.55,1.65,9.45,1.11a31.88,31.88,0,0,0,5.78-1.85c1.77-.7,12.53-4.15,13.81-4.63,9.49-3.56,22.07-7.49,22.74-12S399.82,149.88,396.91,138.59Z" style="fill:#b16668"></path><path d="M385.45,124.38c-.81.85-4,6.54-3.5,13.25s.62,6.19,1.42,9.53,4,13.69,4,13.69l-13.59,8.88a8.2,8.2,0,0,1,3.71,3.7c1.66,2.95,1.52,5.42.71,6.19,0,0,3.26-.93,8.16-2.64a117.11,117.11,0,0,0,13.56-6c1.68-1,3.37-2.71,3.23-5a69.88,69.88,0,0,0-2.47-14c-2-7.81-4.69-19.17-6.89-22.74S385.45,124.38,385.45,124.38Z" style="fill:#455a64"></path><path d="M384.37,123.57c7.32,2.15,9,3.28,11,8.83a216.32,216.32,0,0,1,6.07,22.1c-3.22,3.17-10.16,3.73-15,3.74L383,146.41C381.82,141.57,378,131.17,384.37,123.57Z" style="fill:#0E006B"></path><g style="opacity:0.30000000000000004"><path d="M384.37,123.57c7.32,2.15,9,3.28,11,8.83a216.32,216.32,0,0,1,6.07,22.1c-3.22,3.17-10.16,3.73-15,3.74L383,146.41C381.82,141.57,378,131.17,384.37,123.57Z" style="fill:#fff"></path></g></g></g></g><g id="freepik--Shoes--inject-52"><g id="freepik--Slippers--inject-52"><path d="M152.8,403.56c4-4.51,8.32-5.85,15-8.68s10.62-6.17,15-8.4c3.67-1.88,7.17-2.8,11.41-.74,2.32,1.12,3.3,2.46,3.31,3.9,0,.42,0,2.14,0,2.58,0,1.6-1.3,3.31-3.3,5-3.85,3.22-9.87,4.89-12.65,8S174.76,414,165.62,414c-7.42,0-13.87-2.33-13.9-5.62V406A3.59,3.59,0,0,1,152.8,403.56Z" style="fill:#37474f"></path><path d="M194.18,385.74c4.95,2.4,3.86,5.79,0,9s-9.87,4.89-12.65,8-6.77,8.88-15.91,8.88-16.81-3.54-12.83-8,8.33-5.85,15-8.68,10.62-6.17,15-8.4C186.44,384.6,189.94,383.68,194.18,385.74Z" style="fill:#455a64"></path><path d="M125.36,392.82c1.79-5.94,7.84-7.25,13.19-8.86s8.24-5.08,13.82-7.3,11.44-2.86,15.59,0c1.48,1,2.07,2,2,2.86,0,.39,0,2,0,2.41,0,1.29-1.37,2.51-3.29,3.76-3.87,2.51-9.64,4.77-14.55,8.64s-9.52,8.1-15.14,9.31c-5.88,1.27-11.88-2.48-11.84-6.95,0-.38,0-2.12,0-2.62A5.06,5.06,0,0,1,125.36,392.82Z" style="fill:#37474f"></path><path d="M168,376.66c-4.15-2.86-10-2.23-15.59,0s-8.47,5.7-13.82,7.3-11.4,2.92-13.19,8.86c-1.52,5.05,5.14,9.78,11.64,8.38,5.62-1.21,10.24-5.45,15.14-9.32s10.68-6.13,14.55-8.64C170,381.13,171.53,379.11,168,376.66Z" style="fill:#455a64"></path><path d="M150.37,392.6c.47-8.21-8.08-14.68-13.19-11.89-6.66,3.69-10.65,6.8-11.19,10.13s0,4.9.07,5.14A10.06,10.06,0,0,0,137,400.43C143.33,399.18,147.44,394.66,150.37,392.6Z" style="fill:#0E006B"></path><path d="M179.07,404.41c.47-8.21-8.83-15-13.95-12.17-6.66,3.68-12,7-12.53,10.34s-.35,3.76-.24,4c1.72,3,8.8,4.79,15.31,4.17S176.79,406.85,179.07,404.41Z" style="fill:#0E006B"></path></g></g><g id="freepik--character-1--inject-52"><g id="freepik--Bed--inject-52"><path d="M286.13,397.28a42,42,0,0,0,4.19,19.21c.89,1.78,1.86,3.44,2.42,4.61,1.21,2.52.26,3.32-1.33,2.22-2.31-1.59-14.14-18.3-18.75-33.84Z" style="fill:#e0e0e0"></path><path d="M300,426.74c0-5.63-3.87-12.51-8.73-15.36-2.55-1.49-4.85-1.56-6.47-.5h0l-6,3.37,12.53,21.61,5.93-3.36v0C299,431.6,300,429.62,300,426.74Z" style="fill:#37474f"></path><path d="M285.1,414.91c4.86,2.85,8.77,9.72,8.74,15.35s-4,7.9-8.87,5.05-8.77-9.72-8.74-15.36S280.24,412.06,285.1,414.91Z" style="fill:#455a64"></path><path d="M282.06,423.36c0-2.2,1.36-3.2,3-2.24a7.16,7.16,0,0,1,3,5.73c0,2.21-1.36,3.21-3,2.25A7.16,7.16,0,0,1,282.06,423.36Z" style="fill:#263238"></path><path d="M279.93,400.8A42,42,0,0,0,284.11,420c.9,1.78,1.87,3.44,2.43,4.6,1.21,2.53.26,3.32-1.33,2.23-2.31-1.59-14.14-18.3-18.75-33.84Z" style="fill:#f5f5f5"></path><path d="M285.25,424a1.93,1.93,0,0,1,1,1.47c0,.56-.35.81-.85.55a1.93,1.93,0,0,1-1-1.47C284.37,424,284.75,423.73,285.25,424Z" style="fill:#263238"></path><path d="M380.2,342.74a42,42,0,0,0,4.18,19.2c.9,1.79,1.87,3.44,2.43,4.61,1.2,2.52.26,3.32-1.33,2.23-2.31-1.59-14.15-18.3-18.76-33.84Z" style="fill:#e0e0e0"></path><path d="M394.11,372.2c0-5.64-3.88-12.51-8.74-15.36-2.55-1.5-4.85-1.57-6.47-.5h0l-6,3.36,12.53,21.61,5.93-3.36h0C393,377.05,394.09,375.07,394.11,372.2Z" style="fill:#37474f"></path><path d="M379.16,360.36c4.87,2.85,8.78,9.73,8.74,15.36s-4,7.89-8.87,5-8.77-9.72-8.73-15.35S374.3,357.52,379.16,360.36Z" style="fill:#455a64"></path><path d="M376.12,368.82c0-2.2,1.36-3.21,3-2.24a7.18,7.18,0,0,1,2.95,5.73c0,2.2-1.36,3.21-3,2.24A7.18,7.18,0,0,1,376.12,368.82Z" style="fill:#263238"></path><path d="M374,346.26a41.93,41.93,0,0,0,4.19,19.2c.9,1.79,1.86,3.44,2.42,4.61,1.21,2.52.26,3.32-1.33,2.23-2.3-1.6-14.14-18.3-18.75-33.84Z" style="fill:#f5f5f5"></path><path d="M379.31,369.44a1.93,1.93,0,0,1,1,1.47c0,.56-.35.81-.85.56a1.93,1.93,0,0,1-1-1.47C378.43,369.44,378.81,369.19,379.31,369.44Z" style="fill:#263238"></path><path d="M131.09,307.16a42,42,0,0,0,4.18,19.2c.9,1.78,1.87,3.44,2.42,4.61,1.21,2.52.26,3.32-1.32,2.22-2.31-1.59-14.15-18.3-18.76-33.84Z" style="fill:#e0e0e0"></path><path d="M145,336.61c0-5.63-3.88-12.51-8.74-15.36-2.55-1.49-4.85-1.56-6.47-.49h0l-6,3.36,12.54,21.61,5.92-3.36v0C143.93,341.47,145,339.49,145,336.61Z" style="fill:#37474f"></path><path d="M130.05,324.78c4.86,2.85,8.78,9.72,8.74,15.36s-4,7.89-8.87,5-8.77-9.72-8.73-15.36S125.19,321.93,130.05,324.78Z" style="fill:#455a64"></path><path d="M127,333.23c0-2.2,1.36-3.2,3-2.24a7.18,7.18,0,0,1,3,5.74c0,2.2-1.36,3.2-3,2.24A7.2,7.2,0,0,1,127,333.23Z" style="fill:#263238"></path><path d="M124.88,310.67a42,42,0,0,0,4.19,19.21c.89,1.78,1.86,3.44,2.42,4.61,1.21,2.52.26,3.32-1.33,2.22-2.31-1.59-14.14-18.3-18.75-33.84Z" style="fill:#f5f5f5"></path><path d="M130.2,333.86a1.93,1.93,0,0,1,1,1.47c0,.56-.35.81-.85.55a1.93,1.93,0,0,1-1-1.47C129.32,333.85,129.7,333.61,130.2,333.86Z" style="fill:#263238"></path><path d="M225.89,253.4a41.93,41.93,0,0,0,4.19,19.2c.9,1.79,1.86,3.44,2.42,4.61,1.21,2.52.26,3.32-1.33,2.22-2.3-1.59-14.14-18.3-18.75-33.83Z" style="fill:#e0e0e0"></path><path d="M239.81,282.85c0-5.63-3.88-12.51-8.74-15.35-2.55-1.5-4.85-1.57-6.47-.5h0l-6,3.36L231.16,292l5.92-3.36v0C238.74,287.71,239.79,285.73,239.81,282.85Z" style="fill:#37474f"></path><path d="M224.86,271c4.86,2.85,8.77,9.72,8.74,15.36s-4,7.89-8.87,5S216,281.7,216,276.06,220,268.17,224.86,271Z" style="fill:#455a64"></path><path d="M221.82,279.47c0-2.2,1.36-3.2,3-2.24a7.18,7.18,0,0,1,3,5.74c0,2.2-1.36,3.2-3,2.24A7.17,7.17,0,0,1,221.82,279.47Z" style="fill:#263238"></path><path d="M219.69,256.92a41.93,41.93,0,0,0,4.19,19.2c.89,1.78,1.86,3.44,2.42,4.61,1.21,2.52.26,3.32-1.33,2.22-2.31-1.59-14.14-18.3-18.75-33.84Z" style="fill:#f5f5f5"></path><path d="M225,280.1a1.93,1.93,0,0,1,1,1.47c0,.56-.35.81-.85.55a1.93,1.93,0,0,1-1-1.46C224.13,280.1,224.51,279.85,225,280.1Z" style="fill:#263238"></path><path d="M204.93,166.06a.55.55,0,0,0-.57.05L85.85,234.54a1.76,1.76,0,0,0-.8,1.38v34.41a.56.56,0,0,0,.23.52l3.59,2.07a.55.55,0,0,0,.57-.05L208,204.44a1.76,1.76,0,0,0,.8-1.38V168.64a.56.56,0,0,0-.23-.51Z" style="fill:#e0e0e0"></path><path d="M89.44,272.87,208,204.44a1.76,1.76,0,0,0,.8-1.38V168.64c0-.51-.36-.71-.8-.46L89.44,236.6a1.79,1.79,0,0,0-.8,1.39V272.4C88.64,272.91,89,273.12,89.44,272.87Z" style="fill:#fafafa"></path><path d="M193.73,122.76a1,1,0,0,0-.15-.26.69.69,0,0,0-.18-.16l-.09,0c-.54-.31-3.38-1.94-3.51-2a.74.74,0,0,0-.76,0l-88.19,51.08a2.6,2.6,0,0,0-1,1.37L85.05,232.52l2.16,1.24,1.44.83,117.5-67.82,2.61-1.52Zm-22.51,23.71v-3.65a1.74,1.74,0,0,1,.82-1.39l2.73-1.59,7.91-4.55V139a1.79,1.79,0,0,1-.79,1.39Zm-60.06,34.67v-3.65a1.75,1.75,0,0,1,.81-1.39l2.74-1.59,7.91-4.55v3.68a1.78,1.78,0,0,1-.8,1.39Z" style="fill:#e0e0e0"></path><path d="M193.73,122.76a1,1,0,0,0-.15-.26.69.69,0,0,0-.18-.16l-.09,0a.78.78,0,0,0-.69.06l-88.17,51.1a2.39,2.39,0,0,0-1,1.35l-14.3,57.84-.48,1.94,117.5-67.82,2.61-1.52Zm-22.51,20.06a1.74,1.74,0,0,1,.82-1.39l2.73-1.59,7.91-4.55V139a1.79,1.79,0,0,1-.79,1.39l-10.67,6.13Zm-60.06,34.67a1.75,1.75,0,0,1,.81-1.39l2.74-1.59,7.91-4.55v3.68a1.78,1.78,0,0,1-.8,1.39l-10.66,6.11Z" style="fill:#fafafa"></path><path d="M126.17,168.84v6.85a1.8,1.8,0,0,1-.8,1.39L112,184.79c-.44.24-.81.05-.81-.47v-3.18L121.82,175a1.78,1.78,0,0,0,.8-1.39V170l2.75-1.59C125.81,168.12,126.17,168.34,126.17,168.84Z" style="fill:#e0e0e0"></path><path d="M126.17,168.84v6.85a1.8,1.8,0,0,1-.8,1.39L112,184.79c-.44.24-.81.05-.81-.47v-3.18L121.82,175a1.78,1.78,0,0,0,.8-1.39V170l2.75-1.59C125.81,168.12,126.17,168.34,126.17,168.84Z" style="fill:#ebebeb"></path><path d="M126.17,168.84v6.85a1.8,1.8,0,0,1-.8,1.39L112,184.79c-.44.24-.81.05-.81-.47v-3.18L121.82,175a1.78,1.78,0,0,0,.8-1.39V170l2.75-1.59C125.81,168.12,126.17,168.34,126.17,168.84Z" style="fill:#e0e0e0"></path><path d="M126.17,168.84v6.85a1.8,1.8,0,0,1-.8,1.39L112,184.79c-.44.24-.81.05-.81-.47v-3.18L121.82,175a1.78,1.78,0,0,0,.8-1.39V170l2.75-1.59C125.81,168.12,126.17,168.34,126.17,168.84Z" style="opacity:0.1"></path><path d="M186.23,134.17V141a1.78,1.78,0,0,1-.8,1.39L172,150.12c-.45.24-.82,0-.82-.47v-3.18l10.67-6.13a1.79,1.79,0,0,0,.79-1.39v-3.66l2.75-1.59C185.88,133.45,186.23,133.67,186.23,134.17Z" style="fill:#e0e0e0"></path><path d="M186.23,134.17V141a1.78,1.78,0,0,1-.8,1.39L172,150.12c-.45.24-.82,0-.82-.47v-3.18l10.67-6.13a1.79,1.79,0,0,0,.79-1.39v-3.66l2.75-1.59C185.88,133.45,186.23,133.67,186.23,134.17Z" style="fill:#ebebeb"></path><path d="M186.23,134.17V141a1.78,1.78,0,0,1-.8,1.39L172,150.12c-.45.24-.82,0-.82-.47v-3.18l10.67-6.13a1.79,1.79,0,0,0,.79-1.39v-3.66l2.75-1.59C185.88,133.45,186.23,133.67,186.23,134.17Z" style="fill:#e0e0e0"></path><path d="M186.23,134.17V141a1.78,1.78,0,0,1-.8,1.39L172,150.12c-.45.24-.82,0-.82-.47v-3.18l10.67-6.13a1.79,1.79,0,0,0,.79-1.39v-3.66l2.75-1.59C185.88,133.45,186.23,133.67,186.23,134.17Z" style="opacity:0.1"></path><path d="M189.9,176.15c-2.64-11.49-11.53-15.94-22.12-9.82l-38.16,22c-10.59,6.11-19.47,20.82-22.12,35.35Z" style="fill:#e6e6e6"></path><polygon points="280.24 405.81 280.24 397.14 415.36 319.13 415.36 327.79 280.24 405.81" style="fill:#e0e0e0"></polygon><polygon points="280.24 405.81 280.24 397.14 276.49 394.97 276.49 403.64 280.24 405.81" style="fill:#e0e0e0"></polygon><polygon points="280.24 405.81 280.24 397.14 276.49 394.97 276.49 403.64 280.24 405.81" style="opacity:0.15"></polygon><polygon points="415.36 319.13 411.61 316.96 276.49 394.97 280.24 397.14 415.36 319.13" style="fill:#f0f0f0"></polygon><polygon points="102.27 303.03 102.27 294.36 237.38 216.34 237.38 225.01 102.27 303.03" style="fill:#e0e0e0"></polygon><polygon points="102.27 303.03 102.27 294.36 98.51 292.19 98.51 300.86 102.27 303.03" style="fill:#e0e0e0"></polygon><polygon points="102.27 303.03 102.27 294.36 98.51 292.19 98.51 300.86 102.27 303.03" style="opacity:0.15"></polygon><polygon points="237.38 216.34 233.63 214.18 98.51 292.19 102.27 294.36 237.38 216.34" style="fill:#f0f0f0"></polygon><polygon points="280.23 405.81 280.23 397.14 98.51 292.19 98.51 300.86 280.23 405.81" style="fill:#e0e0e0"></polygon><g style="opacity:0.1"><polygon points="280.23 405.81 280.23 397.14 98.51 292.19 98.51 300.86 280.23 405.81"></polygon></g><polygon points="280.23 405.81 280.23 397.14 283.99 394.97 283.99 403.64 280.23 405.81" style="fill:#e0e0e0"></polygon><polygon points="98.51 292.19 102.27 290.03 283.99 394.97 280.23 397.14 98.51 292.19" style="fill:#f0f0f0"></polygon><polygon points="302.75 392.81 302.75 375.47 107.57 262.78 107.57 280.12 302.75 392.81" style="fill:#e0e0e0"></polygon><g style="opacity:0.1"><polygon points="302.75 392.81 302.75 375.47 107.57 262.78 107.57 280.12 302.75 392.81"></polygon></g><polygon points="302.75 392.81 302.75 375.47 306.51 373.3 306.51 390.64 302.75 392.81" style="fill:#e0e0e0"></polygon><polygon points="302.75 392.81 302.75 375.47 306.51 373.3 306.51 390.64 302.75 392.81" style="opacity:0.15"></polygon><polygon points="107.57 262.78 111.33 260.61 306.51 373.3 302.75 375.47 107.57 262.78" style="fill:#e0e0e0"></polygon><path d="M292,229.65a4.34,4.34,0,0,0-.33-.56L263.38,188.3a6.78,6.78,0,0,0-1.68-1.73l-35.95-20.76a.71.71,0,0,0-.35-.11.27.27,0,0,0-.2.06l0,0c-.44.24-2.82,1.61-3.38,2l-.11.06a.31.31,0,0,0-.11.08l0,0a.69.69,0,0,0-.09.23s0,0,0,0a.22.22,0,0,0,0,.08.28.28,0,0,0,0,.09V215.8a1,1,0,0,0,.49.88L288.18,255a.64.64,0,0,0,.56.06l3.58-2.07s.06,0,.06-.08,0,0,0-.05a.4.4,0,0,0,.07-.13.93.93,0,0,0,0-.26V231.29A4.13,4.13,0,0,0,292,229.65Zm-63.05-48.33c0-.52.36-.71.81-.47l2.74,1.58v-3.15c0-.51.36-.7.81-.46l22.18,12.81a1.8,1.8,0,0,1,.79,1.38v10.07c0,.5-.36.73-.79.47L252.7,202v3.16c0,.5-.35.72-.8.46L249.16,204l-16.69-9.65-2.74-1.59a1.71,1.71,0,0,1-.81-1.38Zm33.43,22.23c0-.52.4-.33.88.36l2.66,3.84v-6.24c0-.51.41-.33.9.38l18.56,26.77a5,5,0,0,1,.89,2.23v3.35c0,.52-.4.47-.92-.1l-4.95-5.5,1.44,2.06a5.08,5.08,0,0,1,.89,2.21v3.37c0,.51-.41.46-.93-.11l-5-5.62L265.89,218.5l-2.62-2.93a3.51,3.51,0,0,1-.92-1.95Z" style="fill:#e0e0e0"></path><path d="M288.43,231.68a5.21,5.21,0,0,0-.34-.56l-28.26-40.78a6.74,6.74,0,0,0-1.68-1.75l-35.94-20.74a.67.67,0,0,0-.36-.12h-.08l-.11,0-.07,0s0,0,0,.06l0,0a.69.69,0,0,0-.09.23s0,0,0,0a.22.22,0,0,0,0,.08v47.54a1,1,0,0,0,.51.89l66.26,38.25c.27.15.52.13.64,0,0,0,0,0,0-.06a.35.35,0,0,0,.08-.13,1.56,1.56,0,0,0,0-.26V233.32A4.13,4.13,0,0,0,288.43,231.68ZM252.7,205.12c0,.5-.35.72-.8.46L249.16,204l-16.69-9.65-2.74-1.59a1.71,1.71,0,0,1-.81-1.38V181.32c0-.52.36-.71.81-.47l2.74,1.58,19.43,11.23a1.76,1.76,0,0,1,.8,1.39Zm30,31.16c0,.51-.41.46-.93-.11l-5-5.62L265.89,218.5l-2.62-2.93a3.51,3.51,0,0,1-.92-1.95V203.55c0-.52.4-.33.88.36l2.66,3.84,14.48,20.89,1.44,2.06a5.08,5.08,0,0,1,.89,2.21Z" style="fill:#ebebeb"></path><path d="M282.7,232.91v3.37c0,.51-.41.46-.93-.11l-5-5.62L265.89,218.5l-2.62-2.93a3.51,3.51,0,0,1-.92-1.95V203.55c0-.52.4-.33.88.36l2.66,3.84v3.83a3.58,3.58,0,0,0,.93,2l2.63,2.92,10.82,12.05.1.12,1.44,2.06A5.08,5.08,0,0,1,282.7,232.91Z" style="fill:#ebebeb"></path><path d="M282.7,232.91v3.37c0,.51-.41.46-.93-.11l-5-5.62L265.89,218.5l-2.62-2.93a3.51,3.51,0,0,1-.92-1.95V203.55c0-.52.4-.33.88.36l2.66,3.84v3.83a3.58,3.58,0,0,0,.93,2l2.63,2.92,10.82,12.05.1.12,1.44,2.06A5.08,5.08,0,0,1,282.7,232.91Z" style="opacity:0.1"></path><path d="M252.7,202v3.16c0,.5-.35.72-.8.46L249.16,204l-16.69-9.65-2.74-1.59a1.71,1.71,0,0,1-.81-1.38V181.32c0-.52.36-.71.81-.47l2.74,1.58v6.91a1.72,1.72,0,0,0,.81,1.38l2.73,1.59Z" style="fill:#ebebeb"></path><path d="M252.7,202v3.16c0,.5-.35.72-.8.46L249.16,204l-16.69-9.65-2.74-1.59a1.71,1.71,0,0,1-.81-1.38V181.32c0-.52.36-.71.81-.47l2.74,1.58v6.91a1.72,1.72,0,0,0,.81,1.38l2.73,1.59Z" style="opacity:0.1"></path><path d="M396.84,264.59l-36-20.75a2.38,2.38,0,0,0-1.68-.21L331,251.79a.78.78,0,0,0-.33.16c-.54.33-2.57,1.48-3.22,1.86,0,0,0,0-.06,0h0l-.13.08a1.29,1.29,0,0,0-.34.25s-.09.1-.13.16l-.11.19a1.12,1.12,0,0,0-.11.47v21.13a1.39,1.39,0,0,0,.06.4,1.76,1.76,0,0,0,.5.81.92.92,0,0,0,.24.19l66,38.1a.57.57,0,0,0,.54.05h0c.14-.09,3-1.74,3.54-2a.22.22,0,0,0,.14-.16.23.23,0,0,0,.07-.11.67.67,0,0,0,.05-.26V266A1.76,1.76,0,0,0,396.84,264.59ZM356.69,254V264a.87.87,0,0,1-.92.89l-2.62-.12v1.26a.87.87,0,0,1-.92.88l-2.63-.1-15.88-.67a1,1,0,0,1-.92-1v-3.36a1.29,1.29,0,0,1,.88-1.19l2.66-.77v-.08a1.29,1.29,0,0,1,.89-1.18l18.57-5.34A.65.65,0,0,1,356.69,254Zm33.43,26.4c0,.52-.36.73-.81.47l-2.73-1.57v3.14c0,.52-.38.72-.81.46L383,281.28l-19.44-11.22a1.75,1.75,0,0,1-.79-1.38V258.61c0-.5.34-.73.79-.47l2.75,1.59v-3.16c0-.5.35-.72.79-.46l22.18,12.81a1.74,1.74,0,0,1,.81,1.38Z" style="fill:#e0e0e0"></path><path d="M393.28,266.62l-35.94-20.75a2.4,2.4,0,0,0-1.68-.2l-28.26,8.14s0,0-.06,0h0a.79.79,0,0,0-.26.13,1.29,1.29,0,0,0-.21.2s-.09.1-.13.16l-.11.19a1.12,1.12,0,0,0-.11.47v21.13a1.39,1.39,0,0,0,.06.4,2,2,0,0,0,.5.81,2.07,2.07,0,0,0,.24.17l66,38.1a.64.64,0,0,0,.54.07h0a.26.26,0,0,0,.14-.17.23.23,0,0,0,.07-.11,1,1,0,0,0,0-.26V268A1.72,1.72,0,0,0,393.28,266.62Zm-40.13-.57a.87.87,0,0,1-.92.88l-2.63-.1-15.88-.67a1,1,0,0,1-.92-1v-3.36a1.29,1.29,0,0,1,.88-1.19l2.66-.77,15.92-4.57a.66.66,0,0,1,.89.67Zm33.43,16.34c0,.52-.38.72-.81.46L383,281.28l-19.44-11.22a1.75,1.75,0,0,1-.79-1.38V258.61c0-.5.34-.73.79-.47l2.75,1.59,19.43,11.21a1.83,1.83,0,0,1,.81,1.4Z" style="fill:#ebebeb"></path><path d="M386.58,279.25v3.14c0,.52-.38.72-.81.46L383,281.28l-19.44-11.22a1.75,1.75,0,0,1-.79-1.38V258.61c0-.5.34-.73.79-.47l2.75,1.59v6.91a1.76,1.76,0,0,0,.79,1.38Z" style="fill:#ebebeb"></path><path d="M386.58,279.25v3.14c0,.52-.38.72-.81.46L383,281.28l-19.44-11.22a1.75,1.75,0,0,1-.79-1.38V258.61c0-.5.34-.73.79-.47l2.75,1.59v6.91a1.76,1.76,0,0,0,.79,1.38Z" style="opacity:0.1"></path><path d="M353.15,264.79v1.26a.87.87,0,0,1-.92.88l-2.63-.1-15.88-.67a1,1,0,0,1-.92-1v-3.36a1.29,1.29,0,0,1,.88-1.19l2.66-.77v3.29a1,1,0,0,0,.93,1l15.87.66Z" style="fill:#ebebeb"></path><path d="M353.15,264.79v1.26a.87.87,0,0,1-.92.88l-2.63-.1-15.88-.67a1,1,0,0,1-.92-1v-3.36a1.29,1.29,0,0,1,.88-1.19l2.66-.77v3.29a1,1,0,0,0,.93,1l15.87.66Z" style="opacity:0.1"></path><path d="M414,310.46a1.69,1.69,0,0,0-1-1.39L207.56,190.49a5.28,5.28,0,0,0-4.8,0L95,252.73a1.67,1.67,0,0,0-1,1.38V261a1.68,1.68,0,0,0,1,1.39L300.35,380.94a5.3,5.3,0,0,0,4.81,0L413,318.7a1.68,1.68,0,0,0,1-1.36C414,316.83,414,311,414,310.46Z" style="fill:#ebebeb"></path><path d="M95,255.5,300.35,374.08a5.3,5.3,0,0,0,4.81,0L413,311.84c1.32-.76,1.32-2,0-2.77L207.56,190.49a5.28,5.28,0,0,0-4.8,0L95,252.73C93.63,253.49,93.63,254.73,95,255.5Z" style="fill:#e0e0e0"></path><path d="M406,293c0-3.35-2.19-6.72-6.63-9.28L221.17,180.85c-8.84-5.11-23.17-5.11-32,0l-80.6,46.53c-4.35,2.51-6.56,5.8-6.63,9.09,0,2.56,0,12,0,14.53,0,3.35,2.2,6.71,6.63,9.27L286.75,363.15c8.84,5.1,23.17,5.1,32,0l80.59-46.54c4.42-2.55,6.63-5.89,6.63-9.23C406,304.87,406,295.5,406,293Z" style="fill:#ebebeb"></path><path d="M108.56,245.86,286.75,348.74c8.84,5.1,23.17,5.1,32,0l80.59-46.54c8.84-5.1,8.84-13.37,0-18.48L221.17,180.85c-8.84-5.11-23.17-5.11-32,0l-80.6,46.53C99.72,232.48,99.72,240.76,108.56,245.86Z" style="fill:#f5f5f5"></path><path d="M286.75,348.74c8.84,5.1,23.17,5.1,32,0l80.59-46.54c8.84-5.1,8.84-13.37,0-18.48l-136.49-78.8L150.35,270Z" style="fill:#0E006B"></path><path d="M286.75,348.74c8.84,5.1,23.17,5.1,32,0l80.59-46.54c8.84-5.1,8.84-13.37,0-18.48l-136.49-78.8L150.35,270Z" style="fill:#fff;opacity:0.4"></path><polygon points="262.86 204.92 150.35 269.99 166.96 279.57 279.47 214.51 262.86 204.92" style="fill:#fafafa"></polygon><path d="M168.06,294.64c-.54.31-1,.59-1.41.83a2.48,2.48,0,0,0-1.2,2.13v11.47l-16.59-9.59V288a2.45,2.45,0,0,1,1.2-2.13l1.4-.83c-.68-.41-1.11-.94-1.11-2.77V270l16.6,9.59v12.29C167,293.7,167.37,294.23,168.06,294.64Z" style="fill:#f0f0f0"></path><path d="M302.75,352.56v35.85l-137.3-79.34V297.6a2.48,2.48,0,0,1,1.2-2.13c.39-.24.87-.52,1.41-.83-.69-.41-1.11-.94-1.11-2.77V279.58l119.79,69.15A32.76,32.76,0,0,0,302.75,352.56Z" style="fill:#0E006B"></path><path d="M302.75,352.56v35.85l-137.3-79.34V297.6a2.48,2.48,0,0,1,1.2-2.13c.39-.24.87-.52,1.41-.83-.69-.41-1.11-.94-1.11-2.77V279.58l119.79,69.15A32.76,32.76,0,0,0,302.75,352.56Z" style="fill:#fff;opacity:0.2"></path><path d="M403.6,314.36c1.59.92,2.38.41,2.38,4.47v10L302.75,388.41V352.56a32.67,32.67,0,0,0,16-3.83l80.6-46.53c4.41-2.53,6.61-5.88,6.63-9.2v16.26A8,8,0,0,1,403.6,314.36Z" style="fill:#0E006B"></path><path d="M403.6,314.36h0l-96.33,55.52a9,9,0,0,1-9,0L151.46,285.05l-1.4.83a2.36,2.36,0,0,0-.94,1l149.12,85.95a9.07,9.07,0,0,0,9,0l98.52-56.53C405.47,315,404.74,315,403.6,314.36Z" style="opacity:0.15"></path><path d="M217.12,205c.59-3.25-2.28-9-6.41-12.81L194.1,176.79c-2.31-2.14-4.52-3.23-6.12-3.21h0c-4.11-.32-22.36,8.46-31.49,13.73s-29.3,18.11-33.12,23.91c-1.26,1.9,25.26,33.43,29.34,32.7,9.06-1.63,26.39-9.84,35.51-15.41,14.92-9.09,23.85-16.93,27.1-20.31A5.38,5.38,0,0,0,217.12,205Z" style="fill:#fff"></path><path d="M129.11,225.46l16.61,15.39c4.13,3.82,7.95,4.29,8.53,1s-2.28-9-6.41-12.81l-16.61-15.38c-4.13-3.82-7.95-4.29-8.54-1S125,221.64,129.11,225.46Z" style="fill:#ebebeb"></path><path d="M178.13,294.85a4.34,4.34,0,0,0-.33-.56L149.54,253.5a6.84,6.84,0,0,0-1.68-1.74l-36-20.75a.62.62,0,0,0-.35-.11.31.31,0,0,0-.2,0s0,0,0,0c-.44.24-2.82,1.61-3.38,1.95l-.11.06a.23.23,0,0,0-.11.08l0,0a.69.69,0,0,0-.09.23s0,0,0,0a.22.22,0,0,0,0,.08.28.28,0,0,0,0,.09V281a1,1,0,0,0,.49.88l66.28,38.27a.64.64,0,0,0,.56.06l3.58-2.07s.06,0,.06-.08,0,0,0-.05a.54.54,0,0,0,.07-.13,1,1,0,0,0,0-.26V296.49A4.08,4.08,0,0,0,178.13,294.85Zm-63-48.34c0-.51.36-.7.81-.46l2.74,1.58v-3.15c0-.51.36-.7.81-.46l22.18,12.81a1.8,1.8,0,0,1,.79,1.38v10.07c0,.5-.36.73-.79.47l-2.76-1.59v3.16c0,.5-.35.71-.8.45l-2.74-1.59-16.69-9.64L115.89,258a1.71,1.71,0,0,1-.81-1.38Zm33.43,22.24c0-.52.4-.33.88.36l2.66,3.84v-6.24c0-.51.41-.33.9.37l18.56,26.78a5,5,0,0,1,.89,2.22v3.36c0,.52-.4.47-.92-.1l-4.95-5.5L168,295.9a5,5,0,0,1,.89,2.21v3.37c0,.51-.41.46-.93-.12l-5.05-5.61-10.83-12.06-2.62-2.92a3.51,3.51,0,0,1-.92-1.95Z" style="fill:#e0e0e0"></path><path d="M174.59,296.87a6.26,6.26,0,0,0-.34-.55L146,255.54a6.74,6.74,0,0,0-1.68-1.75L108.37,233a.75.75,0,0,0-.36-.11h-.08l-.11,0-.07,0s0,0,0,.06l0,0a.69.69,0,0,0-.09.23s0,0,0,0a.22.22,0,0,0,0,.08V281a1,1,0,0,0,.51.89l66.26,38.25c.27.15.52.13.64,0a0,0,0,0,0,0,0,.57.57,0,0,0,.08-.13,1.7,1.7,0,0,0,0-.26V298.52A4.21,4.21,0,0,0,174.59,296.87Zm-35.73-26.55c0,.5-.35.71-.8.45l-2.74-1.59-16.69-9.64L115.89,258a1.71,1.71,0,0,1-.81-1.38V246.51c0-.51.36-.7.81-.46l2.74,1.58,19.43,11.23a1.76,1.76,0,0,1,.8,1.39Zm30,31.16c0,.51-.41.46-.93-.12l-5.05-5.61-10.83-12.06-2.62-2.92a3.51,3.51,0,0,1-.92-1.95V268.75c0-.52.4-.33.88.36l2.66,3.84,14.48,20.89L168,295.9a5,5,0,0,1,.89,2.21Z" style="fill:#ebebeb"></path><path d="M168.86,298.11v3.37c0,.51-.41.46-.93-.12l-5.05-5.61-10.83-12.06-2.62-2.92a3.51,3.51,0,0,1-.92-1.95V268.75c0-.52.4-.33.88.36l2.66,3.84v3.83a3.58,3.58,0,0,0,.93,2l2.63,2.92,10.82,12,.1.13L168,295.9A5,5,0,0,1,168.86,298.11Z" style="fill:#ebebeb"></path><path d="M168.86,298.11v3.37c0,.51-.41.46-.93-.12l-5.05-5.61-10.83-12.06-2.62-2.92a3.51,3.51,0,0,1-.92-1.95V268.75c0-.52.4-.33.88.36l2.66,3.84v3.83a3.58,3.58,0,0,0,.93,2l2.63,2.92,10.82,12,.1.13L168,295.9A5,5,0,0,1,168.86,298.11Z" style="opacity:0.1"></path><path d="M138.86,267.16v3.16c0,.5-.35.71-.8.45l-2.74-1.59-16.69-9.64L115.89,258a1.71,1.71,0,0,1-.81-1.38V246.51c0-.51.36-.7.81-.46l2.74,1.58v6.91a1.72,1.72,0,0,0,.81,1.38l2.73,1.59Z" style="fill:#ebebeb"></path><path d="M138.86,267.16v3.16c0,.5-.35.71-.8.45l-2.74-1.59-16.69-9.64L115.89,258a1.71,1.71,0,0,1-.81-1.38V246.51c0-.51.36-.7.81-.46l2.74,1.58v6.91a1.72,1.72,0,0,0,.81,1.38l2.73,1.59Z" style="opacity:0.1"></path><path d="M283,329.79,247,309a2.44,2.44,0,0,0-1.68-.2L217.11,317a.78.78,0,0,0-.33.16c-.54.33-2.57,1.48-3.22,1.86,0,0,0,0-.06,0h0l-.13.09a1.29,1.29,0,0,0-.34.25c0,.05-.09.1-.13.16l-.11.19a1.12,1.12,0,0,0-.11.47v21.13a1.32,1.32,0,0,0,.06.39,1.74,1.74,0,0,0,.5.82.92.92,0,0,0,.24.19l66,38.1a.57.57,0,0,0,.54.05h0c.14-.09,3-1.74,3.54-2a.22.22,0,0,0,.14-.16.28.28,0,0,0,.07-.11.71.71,0,0,0,.05-.26V331.17A1.74,1.74,0,0,0,283,329.79Zm-40.15-10.64v10.07a.87.87,0,0,1-.92.88l-2.62-.11v1.26a.87.87,0,0,1-.92.88l-2.63-.1-15.88-.67a1,1,0,0,1-.92-1V327a1.29,1.29,0,0,1,.88-1.19l2.66-.77V325a1.29,1.29,0,0,1,.89-1.18L242,318.48A.65.65,0,0,1,242.85,319.15Zm33.43,26.4c0,.52-.36.73-.81.47l-2.73-1.57v3.14c0,.52-.38.71-.81.45l-2.74-1.57-19.44-11.21a1.75,1.75,0,0,1-.79-1.38V323.81c0-.5.34-.73.79-.47l2.75,1.59v-3.16c0-.5.35-.72.79-.46l22.18,12.81a1.74,1.74,0,0,1,.81,1.38Z" style="fill:#e0e0e0"></path><path d="M279.44,331.82,243.5,311.07a2.46,2.46,0,0,0-1.68-.21L213.56,319s0,0-.06,0h0a1.08,1.08,0,0,0-.26.14,1,1,0,0,0-.21.2c0,.05-.09.1-.13.16l-.11.19a1.12,1.12,0,0,0-.11.47v21.13a1.32,1.32,0,0,0,.06.39,2,2,0,0,0,.5.82,2.07,2.07,0,0,0,.24.17l66,38.1a.64.64,0,0,0,.54.07h0a.26.26,0,0,0,.14-.17.23.23,0,0,0,.07-.11,1,1,0,0,0,0-.26V333.21A1.72,1.72,0,0,0,279.44,331.82Zm-40.13-.57a.87.87,0,0,1-.92.88l-2.63-.1-15.88-.67a1,1,0,0,1-.92-1V327a1.29,1.29,0,0,1,.88-1.19l2.66-.77,15.92-4.57a.66.66,0,0,1,.89.67Zm33.43,16.34c0,.52-.38.71-.81.45l-2.74-1.57-19.44-11.21a1.75,1.75,0,0,1-.79-1.38V323.81c0-.5.34-.73.79-.47l2.75,1.59,19.43,11.21a1.83,1.83,0,0,1,.81,1.4Z" style="fill:#ebebeb"></path><path d="M272.74,344.45v3.14c0,.52-.38.71-.81.45l-2.74-1.57-19.44-11.21a1.75,1.75,0,0,1-.79-1.38V323.81c0-.5.34-.73.79-.47l2.75,1.59v6.91a1.76,1.76,0,0,0,.79,1.38Z" style="fill:#ebebeb"></path><path d="M272.74,344.45v3.14c0,.52-.38.71-.81.45l-2.74-1.57-19.44-11.21a1.75,1.75,0,0,1-.79-1.38V323.81c0-.5.34-.73.79-.47l2.75,1.59v6.91a1.76,1.76,0,0,0,.79,1.38Z" style="opacity:0.1"></path><path d="M239.31,330v1.26a.87.87,0,0,1-.92.88l-2.63-.1-15.88-.67a1,1,0,0,1-.92-1V327a1.29,1.29,0,0,1,.88-1.19l2.66-.77v3.29a1,1,0,0,0,.93.95l15.87.67Z" style="fill:#ebebeb"></path><path d="M239.31,330v1.26a.87.87,0,0,1-.92.88l-2.63-.1-15.88-.67a1,1,0,0,1-.92-1V327a1.29,1.29,0,0,1,.88-1.19l2.66-.77v3.29a1,1,0,0,0,.93.95l15.87.67Z" style="opacity:0.1"></path><path d="M419.05,308.61a.55.55,0,0,0-.57.05L300,377.08a1.79,1.79,0,0,0-.8,1.39V394a.56.56,0,0,0,.23.51l3.58,2.07a.56.56,0,0,0,.58-.05l118.51-68.42a1.79,1.79,0,0,0,.8-1.39V311.19a.57.57,0,0,0-.24-.52Z" style="fill:#e0e0e0"></path><path d="M303.56,396.49l118.51-68.42a1.79,1.79,0,0,0,.8-1.39V311.19c0-.51-.36-.72-.8-.46L303.56,379.15a1.77,1.77,0,0,0-.81,1.39V396C302.75,396.54,303.11,396.74,303.56,396.49Z" style="fill:#f5f5f5"></path><path d="M407.85,265.31a1.35,1.35,0,0,0-.15-.26.69.69,0,0,0-.18-.16l-.1,0c-.53-.32-3.38-1.94-3.51-2a.76.76,0,0,0-.76,0L315,313.92a2.58,2.58,0,0,0-1,1.36l-14.79,59.79,2.16,1.24,1.45.83,117.5-67.83,2.6-1.51ZM385.34,289v-3.66a1.75,1.75,0,0,1,.81-1.38l2.74-1.59,7.91-4.55v3.66a1.78,1.78,0,0,1-.8,1.39Zm-60.06,34.67V320a1.75,1.75,0,0,1,.81-1.38l2.73-1.59,7.91-4.55v3.68a1.79,1.79,0,0,1-.79,1.39Z" style="fill:#e0e0e0"></path><path d="M407.85,265.31a1.35,1.35,0,0,0-.15-.26.69.69,0,0,0-.18-.16l-.1,0a.79.79,0,0,0-.68,0L318.57,316a2.31,2.31,0,0,0-1,1.35l-14.3,57.85-.48,1.94,117.5-67.83,2.6-1.51Zm-22.51,20.05a1.75,1.75,0,0,1,.81-1.38l2.74-1.59,7.91-4.55v3.66a1.78,1.78,0,0,1-.8,1.39L385.34,289ZM325.28,320a1.75,1.75,0,0,1,.81-1.38l2.73-1.59,7.91-4.55v3.68a1.79,1.79,0,0,1-.79,1.39l-10.66,6.11Z" style="fill:#f5f5f5"></path><path d="M340.28,311.38v6.86a1.79,1.79,0,0,1-.79,1.39l-13.4,7.7c-.44.24-.81.06-.81-.46v-3.18l10.66-6.11a1.79,1.79,0,0,0,.79-1.39v-3.68l2.76-1.59C339.93,310.66,340.28,310.89,340.28,311.38Z" style="fill:#e0e0e0"></path><path d="M340.28,311.38v6.86a1.79,1.79,0,0,1-.79,1.39l-13.4,7.7c-.44.24-.81.06-.81-.46v-3.18l10.66-6.11a1.79,1.79,0,0,0,.79-1.39v-3.68l2.76-1.59C339.93,310.66,340.28,310.89,340.28,311.38Z" style="fill:#ebebeb"></path><path d="M340.28,311.38v6.86a1.79,1.79,0,0,1-.79,1.39l-13.4,7.7c-.44.24-.81.06-.81-.46v-3.18l10.66-6.11a1.79,1.79,0,0,0,.79-1.39v-3.68l2.76-1.59C339.93,310.66,340.28,310.89,340.28,311.38Z" style="fill:#e0e0e0"></path><path d="M340.28,311.38v6.86a1.79,1.79,0,0,1-.79,1.39l-13.4,7.7c-.44.24-.81.06-.81-.46v-3.18l10.66-6.11a1.79,1.79,0,0,0,.79-1.39v-3.68l2.76-1.59C339.93,310.66,340.28,310.89,340.28,311.38Z" style="opacity:0.1"></path><path d="M400.35,276.71v6.84a1.8,1.8,0,0,1-.8,1.39l-13.4,7.72c-.44.24-.81.06-.81-.46V289L396,282.89a1.78,1.78,0,0,0,.8-1.39v-3.66l2.75-1.59C400,276,400.35,276.21,400.35,276.71Z" style="fill:#e0e0e0"></path><path d="M400.35,276.71v6.84a1.8,1.8,0,0,1-.8,1.39l-13.4,7.72c-.44.24-.81.06-.81-.46V289L396,282.89a1.78,1.78,0,0,0,.8-1.39v-3.66l2.75-1.59C400,276,400.35,276.21,400.35,276.71Z" style="fill:#ebebeb"></path><path d="M400.35,276.71v6.84a1.8,1.8,0,0,1-.8,1.39l-13.4,7.72c-.44.24-.81.06-.81-.46V289L396,282.89a1.78,1.78,0,0,0,.8-1.39v-3.66l2.75-1.59C400,276,400.35,276.21,400.35,276.71Z" style="fill:#e0e0e0"></path><path d="M400.35,276.71v6.84a1.8,1.8,0,0,1-.8,1.39l-13.4,7.72c-.44.24-.81.06-.81-.46V289L396,282.89a1.78,1.78,0,0,0,.8-1.39v-3.66l2.75-1.59C400,276,400.35,276.21,400.35,276.71Z" style="opacity:0.1"></path><path d="M404,318.69c-2.64-11.48-11.53-15.93-22.12-9.81l-38.16,22c-10.59,6.11-19.48,20.82-22.12,35.35Z" style="fill:#e6e6e6"></path></g><g id="freepik--character--inject-52"><g id="freepik--character--inject-52"><g id="freepik--character--inject-52"><g id="freepik--arm--inject-52"><path d="M253.09,158.91a3.71,3.71,0,0,0-1.92.27,12.25,12.25,0,0,0-2,1.17c-1,.65-3,2.53-4.38,3.47a6.74,6.74,0,0,1-2.83,1.49c-.35,0-1.11,0-.69-.5a16.26,16.26,0,0,0,1.56-2.07,3.16,3.16,0,0,0,.35-2.5,1.07,1.07,0,0,0-.47-.61c-.32-.17-.5,0-.71.21a5.85,5.85,0,0,1-.71.59l-1.49,1.2c-2.89,2.35-6.84,4.83-8.22,8.38a22.2,22.2,0,0,0-1.34,6.83c-.24,4-1.81,15-1.81,15s-8.21-4.13-13.6-7.22c-6-3.42-9-5.49-13.35-6.15a15.76,15.76,0,0,0-7.85,1l15.73,20s11.23,4.64,18.8,7.51c6.55,2.48,9.19,2.2,10.58.24,2.14-3,3.65-3.14,1.73-20.52-.13-1.23-.14-2.47-.21-3.7,0-2.58-.54-4.33,1.41-5.67a57.35,57.35,0,0,0,7.23-5.74c1-.94,1.24-2.16,2.07-3.27a5,5,0,0,0,1-1.73c.09-.59-.14-1.24.07-1.82.15-.39.44-.71.56-1.13a6.79,6.79,0,0,1,.83-2.6c.33-.41.86-.75.82-1.27a1.09,1.09,0,0,0-.84-.82A2.41,2.41,0,0,0,253.09,158.91Z" style="fill:#ffa8a7"></path><path d="M228.42,191.85c-.84,4.22.55,9.39.55,9.39s-3.31-5.33-2.18-10.22Z" style="fill:#b16668"></path><path d="M196,177.92A24.3,24.3,0,0,1,207,180c3.75,1.51,21.28,11.64,21.28,11.64s.43-1.86.74-4.16c1.11,1.44,2.36,2.5,6.27,3.1,4.35.66,5.39-1.94,5.39-1.94s.77,5.71,1,12c.14,4.75-1.4,9.59-8.56,8.66-1.32-.17-6.47-1.77-11-3.12s-14.72-5-14.72-5Z" style="fill:#0E006B"></path><path d="M196,177.92A24.3,24.3,0,0,1,207,180c3.75,1.51,21.28,11.64,21.28,11.64s.43-1.86.74-4.16c1.11,1.44,2.36,2.5,6.27,3.1,4.35.66,5.39-1.94,5.39-1.94s.77,5.71,1,12c.14,4.75-1.4,9.59-8.56,8.66-1.32-.17-6.47-1.77-11-3.12s-14.72-5-14.72-5Z" style="fill:#fff;opacity:0.15"></path><path d="M228.28,191.63c-.64,3.58-1,7.64.69,10.6-2.34-1.77-2.9-6.13-2.41-11.59Z" style="opacity:0.15"></path><path d="M240.25,167a14,14,0,0,1-3.86,6.77,6,6,0,0,0,3.12-2.46A5.48,5.48,0,0,0,240.25,167Z" style="fill:#f28f8f"></path></g><path d="M181.49,178.45c-9.75,1.33-14,4.84-19.63,8s1.4,15.1,2,30.3c.31,8.2,10.85,30.76,14.62,35.28,5.78-9.67,35.38-27.9,44-27.47,0,0-4.87-10.1-9-13a49,49,0,0,0-.47-9.22c-1.54-10.52-2.91-22.15-15.15-24.5C197.78,177.87,192.63,176.92,181.49,178.45Z" style="fill:#fafafa"></path><path d="M192.87,178.39a30.45,30.45,0,0,1,4.75.28c11.36,2.18,12.9,12.76,14.39,23l.12.83a49.58,49.58,0,0,1,.46,9l0,.45.38.26c3.13,2.2,6.8,8.91,8.18,11.58-10.08,1.08-35.92,17.31-42.72,26.83-4.13-6-13.47-26.43-13.75-33.9A88.65,88.65,0,0,0,162,200.18c-1.51-6.6-2.6-11.37.22-13,1-.55,1.89-1.11,2.79-1.65,4.43-2.68,8.61-5.21,16.55-6.3a84.47,84.47,0,0,1,11.27-.86m0-.81a84.42,84.42,0,0,0-11.38.87c-9.75,1.33-14,4.84-19.63,8s1.4,15.1,2,30.3c.31,8.2,10.85,30.76,14.62,35.28,5.71-9.56,34.7-27.48,43.66-27.48h.31s-4.87-10.1-9-13a49,49,0,0,0-.47-9.22c-1.54-10.53-2.91-22.15-15.15-24.5a30.74,30.74,0,0,0-4.91-.29Z" style="fill:#e0e0e0"></path><path d="M170.45,148.55s-2.13-.13-3.75,3.13c-1.4,2.85-.18,7.67,1.82,12.93a41.23,41.23,0,0,0,4.82,9.41,4.17,4.17,0,0,0,2.63,1.63l-.94-6.41-.46-4.07s3.13-1.07,2.84-8a19.45,19.45,0,0,0-1.32-6.69Z" style="fill:#263238"></path><path d="M180.4,153.6a9.17,9.17,0,1,0,8-10.23A9.17,9.17,0,0,0,180.4,153.6Z" style="fill:#263238"></path><path d="M188.72,176.71a24.74,24.74,0,0,0,5.73-.71c3.08-1.17,4.59-3.31,4.89-8.63.36-6.3-1.59-16.55-4.07-20.39-3.61-2.16-13.61-1.73-20,3.52,3.24,7.43-.13,9.61.14,11.74.22,1.64.1,2.13-.66,2.34-1.19.35-1.71-1.63-3.58-2.62-1.16-.62-4.59-1.16-5.68,2.14s1.89,6.82,4.23,7.59c2.64.86,3.89-.48,3.89-.48l.23,10.27c2.39,3.17,19.71,3.54,14.85-1.32Z" style="fill:#ffa8a7"></path><path d="M188.72,176.71c-3.94.13-8.17-.79-10.06-2.76a16.72,16.72,0,0,1-3.06-5.28s.88,4.63,2.54,6.72,5.67,3.3,10.57,3C188.7,178.23,188.72,176.71,188.72,176.71Z" style="fill:#f28f8f"></path><path d="M183,160.6c0,.81.63-.18,1.44-.13s1.44,1.11,1.48.3a1.45,1.45,0,0,0-1.37-1.54A1.46,1.46,0,0,0,183,160.6Z" style="fill:#263238"></path><path d="M193.22,159.91c.29.75.5-.42,1.25-.71s1.77.42,1.48-.34a1.46,1.46,0,1,0-2.73,1Z" style="fill:#263238"></path><path d="M184.35,155.73l-2.9,2.09a1.87,1.87,0,0,1,.42-2.56A1.75,1.75,0,0,1,184.35,155.73Z" style="fill:#263238"></path><path d="M196,155.14l-3.57-.51a1.72,1.72,0,0,1,2-1.55A1.89,1.89,0,0,1,196,155.14Z" style="fill:#263238"></path><polygon points="188.42 156.8 190.41 165.87 194.75 163.62 188.42 156.8" style="fill:#f28f8f"></polygon><path d="M186,167.64c.6-.62,1.19,0,2.55.23s2.13-.39,2.45.42c.4,1-.71,2.28-2.8,2S185.33,168.36,186,167.64Z" style="fill:#b16668"></path><path d="M189.5,170.24a3.47,3.47,0,0,0-3.59-2.09l-.1,0c-.05.8.83,1.88,2.41,2.1A3.6,3.6,0,0,0,189.5,170.24Z" style="fill:#f28f8f"></path><path d="M166.7,159.69c5.45.78,25.7-5.81,29.29-13.93-3.33-7-13.55-9.29-23.22-4.06C164.62,146.11,165.3,156.15,166.7,159.69Z" style="fill:#f0f0f0"></path><path d="M166,156.51c0,.25.06.49.1.73a30.41,30.41,0,0,0,3.89-1,35,35,0,0,0,7-3.09,36.48,36.48,0,0,0,8.09-6.39c.1-.09.22-.18.32-.28a.15.15,0,0,0,0-.1,35,35,0,0,0,2.62-3.19,35.34,35.34,0,0,0,1.95-3,6.62,6.62,0,0,0-.62-.24c-.41.7-.87,1.39-1.33,2.07a35.28,35.28,0,0,1-3.75,4.52,13.29,13.29,0,0,1-1.65.81,16.78,16.78,0,0,1-2.71.77c-1.37.29-2.76.52-4.15.73a48.48,48.48,0,0,0,4.69-5.91c.16-.22.3-.46.45-.69a.14.14,0,0,0,.08-.13c.58-.89,1.14-1.79,1.65-2.73.08-.15.15-.31.23-.46l-.7,0,0,0q-.78,1.35-1.62,2.67-3.83.62-7.68.95c-.53.05-1.05.09-1.58.12-.29.21-.55.44-.82.67.88,0,1.75-.1,2.61-.17q3.51-.28,7-.83a.1.1,0,0,1,0,.05,48.41,48.41,0,0,1-5.26,6.52v0l-1.11.16a28,28,0,0,1-7,.11c-.06.18-.12.35-.17.53a26.71,26.71,0,0,0,7.09,0c2.16-.25,4.33-.59,6.46-1a20.84,20.84,0,0,0,2.7-.72,35.53,35.53,0,0,1-11.6,7.12A28.81,28.81,0,0,1,166,156.51Z" style="fill:#e0e0e0"></path></g><path d="M228.48,224.8c-4.86-1.66-11.9-1.7-20.84,2.12s-19.17,10.71-25.86,18.38-6.57,10.86-11.68,13.26L187,268c5.11-3,5-5.6,11.67-13.26s16.92-14.56,25.86-18.38,16-3.78,20.85-2.13h0Z" style="fill:#fafafa"></path><path d="M191.62,236.3a65.2,65.2,0,0,0-9.84,9c-4.67,5.34-6,8.5-8.14,10.75,4.87,2.44,10.81,5.41,17.36,8.66,1.88-2.19,3.36-5,7.67-10A65.78,65.78,0,0,1,209,245.34C203.36,242.43,197.53,239.41,191.62,236.3Z" style="fill:#ebebeb"></path><g id="freepik--arm--inject-52"><path d="M216.74,227.61c-2.24.25-4.45.69-6.68,1.07a31.72,31.72,0,0,1-6.88.51c-.1,0-.23,0-.22-.14a.21.21,0,0,1,.08-.11,24.56,24.56,0,0,0,2.58-2.18,3.1,3.1,0,0,0,.78-3.12.6.6,0,0,0-.14-.21c-.18-.16-.47-.08-.7,0-.7.34-1.27.81-2,1.1a18.9,18.9,0,0,1-2.24.73,26.35,26.35,0,0,0-2.79.67,10.2,10.2,0,0,0-3.3,2.12,5.91,5.91,0,0,1-2.81,1.64c-2.38.58-4.17.61-9.35.2a124.73,124.73,0,0,1-12.86-1.61l.52-22.53c0-11-2.65-18.92-5.76-20.85a16.69,16.69,0,0,0-5,4.39c-1.74,2.55-2.1,7-3.29,17.67-.84,7.6-1.17,18-1.28,24.88-.12,7.66,3,9.76,9.9,10.17a120.22,120.22,0,0,0,18.57-.6h0c2.22-.2,16.45-.39,18.78-.9a9.54,9.54,0,0,0,5.27-2.95c.33-.39.64-.81,1-1.2a3.07,3.07,0,0,1,.88-.88c.29-.15.6-.26.89-.43a2.66,2.66,0,0,0,1.23-1.94c.18-1.12,1.38-1.47,2.28-1.82a53.34,53.34,0,0,0,5.69-2.35.2.2,0,0,0,.11-.11.33.33,0,0,0,0-.17C219.66,227.35,217.76,227.49,216.74,227.61Z" style="fill:#ffa8a7"></path><path d="M165.15,184.56c-3.61,2-6.91,3.9-9.12,7.57s-2.83,10.47-2.29,24.35c.47,11.89.94,18.27,1.13,20.25s1.93,5,6.84,5.42a70.19,70.19,0,0,0,9.83,0s-.94-8.59,2.69-13.34l-3.74-.69.74-24.76C171.37,200.05,170.89,188.94,165.15,184.56Z" style="fill:#0E006B"></path><path d="M165.15,184.56c-3.61,2-6.91,3.9-9.12,7.57s-2.83,10.47-2.29,24.35c.47,11.89.94,18.27,1.13,20.25s1.93,5,6.84,5.42a70.19,70.19,0,0,0,9.83,0s-.94-8.59,2.69-13.34l-3.74-.69.74-24.76C171.37,200.05,170.89,188.94,165.15,184.56Z" style="fill:#fff;opacity:0.15"></path><path d="M170.49,228.15c-3.71-.28-8.88.35-11,2.4,0,0,1.35-3.64,11.08-4.21Z" style="opacity:0.15"></path></g></g><path d="M341.36,268.89c-2.93-1.86-23.48,2.15-31.14-1.52s-64.84-33.15-64.84-33.15h0c-4.87-1.65-11.91-1.69-20.85,2.13s-19.16,10.71-25.86,18.38S192.1,265,187.2,267.87L187,268l89.77,51.45L315.18,301c4.5-.64,20.11-16.16,23.5-18.76S344.29,270.74,341.36,268.89Z" style="fill:#0E006B"></path><path d="M341.36,268.89c-2.93-1.86-23.48,2.15-31.14-1.52s-64.84-33.15-64.84-33.15h0c-4.87-1.65-11.91-1.69-20.85,2.13s-19.16,10.71-25.86,18.38S192.1,265,187.2,267.87L187,268l89.77,51.45L315.18,301c4.5-.64,20.11-16.16,23.5-18.76S344.29,270.74,341.36,268.89Z" style="fill:#fff;opacity:0.4"></path><path d="M315.18,301c3-.89,5.33-3.18,7.75-5.05s4.69-4.08,7-6.18l6.87-6.32a12.57,12.57,0,0,0,5-7.38c.48-2.05,1.25-5.83-1-7-3-.7-7.21-.07-10.3,0-6.25.27-12.57.93-18.74-.62a24.54,24.54,0,0,1-4.3-2l-4.15-2.13c-18.9-9.72-39.26-20.21-58-30.15,11.17,5.48,22.29,11.07,33.4,16.66l25,12.66,4.16,2.12c4.05,2.49,8.61,2.88,13.29,2.87,4.48,0,9.46-.34,14-.53a20.89,20.89,0,0,1,5.95.33c2.88,1.38,2,5.49,1.41,7.95a13.23,13.23,0,0,1-5.34,7.63l-7,6.21c-2.34,2.05-4.7,4.08-7.14,6s-4.88,4.05-7.9,4.87Z" style="fill:#0E006B"></path><path d="M314.12,283.22c-8.69-.47-24.67,1.83-42.82-7-11.74-5.73-35.21-17-62.26-30.85a65.78,65.78,0,0,0-10.37,9.39c-4.31,4.94-5.8,7.78-7.68,10,24.18,12,56.65,27.8,73.85,34.82,24.44,10,37.77,3.59,48.55-2.64C323.71,290.94,323.27,283.71,314.12,283.22Z" style="fill:#0E006B;opacity:0.2"></path></g></g><g id="freepik--Plant--inject-52"><g id="freepik--plant--inject-52"><g id="freepik--Pot--inject-52"><path d="M45.88,338.15c-7.64-7.89-12.13-27.81-4.68-34.07H79.13c7.45,6.26,3,26.17-4.67,34.06l-.21.22-.27.26a8.4,8.4,0,0,1-.69.62l-.18.15-.58.44a9.54,9.54,0,0,1-1,.63c-6.29,3.67-16.48,3.67-22.77,0h0a9.2,9.2,0,0,1-1-.64c-.19-.13-.36-.27-.54-.41l-.23-.18q-.35-.28-.66-.6c-.1-.09-.2-.2-.3-.3Z" style="fill:#37474f"></path><path d="M75.83,301.57c8.66,5.05,8.66,13.24,0,18.29s-22.68,5.05-31.33,0-8.66-13.24,0-18.29S67.18,296.51,75.83,301.57Z" style="fill:#455a64"></path><path d="M71.67,304c6.36,3.71,6.36,9.72,0,13.43s-16.66,3.71-23,0-6.36-9.72,0-13.43S65.32,300.29,71.67,304Z" style="fill:#263238"></path><path d="M48.66,310.37c6.35-3.71,16.66-3.71,23,0a10.59,10.59,0,0,1,3.81,3.53,10.59,10.59,0,0,1-3.81,3.53c-6.35,3.71-16.66,3.71-23,0a10.59,10.59,0,0,1-3.81-3.53A10.59,10.59,0,0,1,48.66,310.37Z" style="fill:#fff"></path></g><path d="M55,273.92c-2.56,3.23-10.25,4.65-14.08-3.27-3.59-7.43-7.4-14.44-8.54-17.18a2.9,2.9,0,0,1,1.57-3.88s-.1-4.23,7.25-1.92,12.71,6.25,16.35,13S59.68,272.61,55,273.92Z" style="fill:#0E006B"></path><g style="opacity:0.5"><path d="M55,273.92c-2.56,3.23-10.25,4.65-14.08-3.27-3.59-7.43-7.4-14.44-8.54-17.18a2.9,2.9,0,0,1,1.57-3.88s-.1-4.23,7.25-1.92,12.71,6.25,16.35,13S59.68,272.61,55,273.92Z" style="fill:#fff"></path></g><path d="M58.88,284.48a37.65,37.65,0,0,0-.94-4.21,58.3,58.3,0,0,0-3-8,60.69,60.69,0,0,0-9.43-14.63,52.69,52.69,0,0,0-7.06-6.87c-.08-.06-.12.1-.07.15a65.52,65.52,0,0,1,11.25,13.28,66.2,66.2,0,0,1,7.1,15.49c.47,1.53.92,3.06,1.33,4.61s.69,3.16,1.08,4.73c0,.16.3.24.29,0A28.76,28.76,0,0,0,58.88,284.48Z" style="fill:#0E006B"></path><path d="M58.88,284.48a37.65,37.65,0,0,0-.94-4.21,58.3,58.3,0,0,0-3-8,60.69,60.69,0,0,0-9.43-14.63,52.69,52.69,0,0,0-7.06-6.87c-.08-.06-.12.1-.07.15a65.52,65.52,0,0,1,11.25,13.28,66.2,66.2,0,0,1,7.1,15.49c.47,1.53.92,3.06,1.33,4.61s.69,3.16,1.08,4.73c0,.16.3.24.29,0A28.76,28.76,0,0,0,58.88,284.48Z" style="opacity:0.30000000000000004"></path><path d="M63.31,268.24c-6.67,2.06-11.63-3.15-9.91-11.32s10.29-17.23,13.54-14.8c2-2,6.48-1.29,8.58,5.34S75.71,271.13,63.31,268.24Z" style="fill:#0E006B"></path><g style="opacity:0.30000000000000004"><path d="M63.31,268.24c-6.67,2.06-11.63-3.15-9.91-11.32s10.29-17.23,13.54-14.8c2-2,6.48-1.29,8.58,5.34S75.71,271.13,63.31,268.24Z" style="fill:#fff"></path></g><path d="M67.23,247.09a89.33,89.33,0,0,0-4.44,14.68,142.44,142.44,0,0,0-2.58,15.37c-1.19,10-1.4,9.43-1.33,19.47,0,2.78.06,5.56.11,8.34s0,5.75.25,8.6c.1,1.09,1.65.8,1.67-.2.1-5-.18-10-.23-15a34.64,34.64,0,0,1,.09-4.2A209.13,209.13,0,0,1,63.48,264c.47-2.77,1-5.53,1.65-8.27s1.51-5.71,2.26-8.57C67.42,247.09,67.29,246.94,67.23,247.09Z" style="fill:#0E006B"></path><path d="M67.23,247.09a89.33,89.33,0,0,0-4.44,14.68,142.44,142.44,0,0,0-2.58,15.37c-1.19,10-1.4,9.43-1.33,19.47,0,2.78.06,5.56.11,8.34s0,5.75.25,8.6c.1,1.09,1.65.8,1.67-.2.1-5-.18-10-.23-15a34.64,34.64,0,0,1,.09-4.2A209.13,209.13,0,0,1,63.48,264c.47-2.77,1-5.53,1.65-8.27s1.51-5.71,2.26-8.57C67.42,247.09,67.29,246.94,67.23,247.09Z" style="opacity:0.30000000000000004"></path><path d="M47.87,290.32c-.86,4.32-6.78,7.43-13.61,4.6s-20.33-20.6-14.17-22.56c-.33-3.22,18.29-5.87,27.51,5.48C54.3,286.1,47.87,290.32,47.87,290.32Z" style="fill:#0E006B"></path><g style="opacity:0.7000000000000001"><path d="M47.87,290.32c-.86,4.32-6.78,7.43-13.61,4.6s-20.33-20.6-14.17-22.56c-.33-3.22,18.29-5.87,27.51,5.48C54.3,286.1,47.87,290.32,47.87,290.32Z" style="fill:#fff"></path></g><path d="M57.64,296.73a30.73,30.73,0,0,0-2.77-3.05c-2-2-4.1-3.85-6.28-5.62a84.38,84.38,0,0,0-14.43-9.27,73.38,73.38,0,0,0-8.71-4c-.08,0-.05.13,0,.15,2.48,1.18,5,2.32,7.38,3.66s4.9,2.94,7.24,4.57a105.27,105.27,0,0,1,12.74,10.42c1.12,1.08,2.19,2.22,3.33,3.29s2.44,2.13,3.57,3.29c.17.17.46.09.28-.15C59.2,299,58.48,297.81,57.64,296.73Z" style="fill:#0E006B"></path><path d="M57.64,296.73a30.73,30.73,0,0,0-2.77-3.05c-2-2-4.1-3.85-6.28-5.62a84.38,84.38,0,0,0-14.43-9.27,73.38,73.38,0,0,0-8.71-4c-.08,0-.05.13,0,.15,2.48,1.18,5,2.32,7.38,3.66s4.9,2.94,7.24,4.57a105.27,105.27,0,0,1,12.74,10.42c1.12,1.08,2.19,2.22,3.33,3.29s2.44,2.13,3.57,3.29c.17.17.46.09.28-.15C59.2,299,58.48,297.81,57.64,296.73Z" style="opacity:0.30000000000000004"></path><path d="M85.72,285.11c-.11-2.44-12.37-2.3-18.12,2.31s-6.43,9.16-2.85,10.73c-.62,5.14,7.49,8.52,14.75,2.1S88.34,285.61,85.72,285.11Z" style="fill:#0E006B"></path><path d="M85.72,285.11c-.11-2.44-12.37-2.3-18.12,2.31s-6.43,9.16-2.85,10.73c-.62,5.14,7.49,8.52,14.75,2.1S88.34,285.61,85.72,285.11Z" style="fill:#fff;opacity:0.30000000000000004"></path><path d="M73.64,291.54a30.06,30.06,0,0,0-13.54,11.9c-.18.3.28.87.48.55a35.11,35.11,0,0,1,13.07-12.37S73.69,291.51,73.64,291.54Z" style="fill:#0E006B"></path><path d="M73.64,291.54a30.06,30.06,0,0,0-13.54,11.9c-.18.3.28.87.48.55a35.11,35.11,0,0,1,13.07-12.37S73.69,291.51,73.64,291.54Z" style="opacity:0.30000000000000004"></path><path d="M65.49,306.05c-4.15,4.08.44,9.13,7.17,11.63a24.09,24.09,0,0,0,17.43-.81c3.24-1.62,3.91-2.43,3.91-2.43a41.4,41.4,0,0,0-3.43-8.24,17.23,17.23,0,0,0-17-7.8C65,299.5,64.26,303.08,65.49,306.05Z" style="fill:#0E006B"></path><g style="opacity:0.5"><path d="M65.49,306.05c-4.15,4.08.44,9.13,7.17,11.63a24.09,24.09,0,0,0,17.43-.81c3.24-1.62,3.91-2.43,3.91-2.43a41.4,41.4,0,0,0-3.43-8.24,17.23,17.23,0,0,0-17-7.8C65,299.5,64.26,303.08,65.49,306.05Z" style="fill:#fff"></path></g><path d="M82.91,309.11a44.2,44.2,0,0,0-10.55-3.91c-3.61-.69-8-.72-11,1.85-1.13,1-2.64,3.16-1.71,4.69.09.15.54.43.64.13a15,15,0,0,1,.93-2.84,5.83,5.83,0,0,1,2.26-2.12,13.42,13.42,0,0,1,7.65-1.29c4.11.39,8,2,11.76,3.59C83,309.22,83,309.13,82.91,309.11Z" style="fill:#0E006B"></path><path d="M82.91,309.11a44.2,44.2,0,0,0-10.55-3.91c-3.61-.69-8-.72-11,1.85-1.13,1-2.64,3.16-1.71,4.69.09.15.54.43.64.13a15,15,0,0,1,.93-2.84,5.83,5.83,0,0,1,2.26-2.12,13.42,13.42,0,0,1,7.65-1.29c4.11.39,8,2,11.76,3.59C83,309.22,83,309.13,82.91,309.11Z" style="opacity:0.30000000000000004"></path><path d="M66.63,280.36c-1,3.64,3.61,7.05,9.41,5.1s11.8-3.76,16.74-3.82,8.06-3.31,7-5.5-2.22-7.39-14.79-8.88-18.26,3-20.88,6.43S64.53,281,66.63,280.36Z" style="fill:#0E006B"></path><g style="opacity:0.7000000000000001"><path d="M66.63,280.36c-1,3.64,3.61,7.05,9.41,5.1s11.8-3.76,16.74-3.82,8.06-3.31,7-5.5-2.22-7.39-14.79-8.88-18.26,3-20.88,6.43S64.53,281,66.63,280.36Z" style="fill:#fff"></path></g><path d="M90,272.69a15.8,15.8,0,0,0-4.06-.37,25.7,25.7,0,0,0-3.92.32,30.47,30.47,0,0,0-7.39,2.3c-4.42,2-8.81,4.52-11.68,8.5a28.22,28.22,0,0,0-3.71,6.93c-.16.47.75.74.95.32a53.27,53.27,0,0,1,3.15-6,18.39,18.39,0,0,1,4.82-5,38.09,38.09,0,0,1,13.34-6.11,26.53,26.53,0,0,1,4.26-.63c1.44-.07,2.84.09,4.27.16C90.22,273.07,90.13,272.73,90,272.69Z" style="fill:#0E006B"></path><path d="M90,272.69a15.8,15.8,0,0,0-4.06-.37,25.7,25.7,0,0,0-3.92.32,30.47,30.47,0,0,0-7.39,2.3c-4.42,2-8.81,4.52-11.68,8.5a28.22,28.22,0,0,0-3.71,6.93c-.16.47.75.74.95.32a53.27,53.27,0,0,1,3.15-6,18.39,18.39,0,0,1,4.82-5,38.09,38.09,0,0,1,13.34-6.11,26.53,26.53,0,0,1,4.26-.63c1.44-.07,2.84.09,4.27.16C90.22,273.07,90.13,272.73,90,272.69Z" style="opacity:0.30000000000000004"></path><path d="M56.31,300.92c-1-3.76-5.73-5.86-12-6.32a16.25,16.25,0,0,0-15.46,7.93c-3.25,5.56-4.6,10-2.62,10.71S36.6,315.12,42,315.6s12.12-.49,16.51-4.59S61.46,301.78,56.31,300.92Z" style="fill:#0E006B"></path><path d="M56.31,300.92c-1-3.76-5.73-5.86-12-6.32a16.25,16.25,0,0,0-15.46,7.93c-3.25,5.56-4.6,10-2.62,10.71S36.6,315.12,42,315.6s12.12-.49,16.51-4.59S61.46,301.78,56.31,300.92Z" style="fill:#fff;opacity:0.30000000000000004"></path><path d="M56.55,300.42a16.36,16.36,0,0,0-6.72-.31,29.37,29.37,0,0,0-6.33,1.46,40.59,40.59,0,0,0-6.28,2.82q-1.57.87-3.09,1.83a22.48,22.48,0,0,0-2.78,1.92s0,.16,0,.13c1-.45,2-1.1,2.95-1.65s2.11-1.17,3.19-1.71a44.82,44.82,0,0,1,6.22-2.64,29.11,29.11,0,0,1,6.59-1.41,40.06,40.06,0,0,1,6.29.16C57.05,301.05,56.81,300.5,56.55,300.42Z" style="fill:#0E006B"></path><path d="M56.55,300.42a16.36,16.36,0,0,0-6.72-.31,29.37,29.37,0,0,0-6.33,1.46,40.59,40.59,0,0,0-6.28,2.82q-1.57.87-3.09,1.83a22.48,22.48,0,0,0-2.78,1.92s0,.16,0,.13c1-.45,2-1.1,2.95-1.65s2.11-1.17,3.19-1.71a44.82,44.82,0,0,1,6.22-2.64,29.11,29.11,0,0,1,6.59-1.41,40.06,40.06,0,0,1,6.29.16C57.05,301.05,56.81,300.5,56.55,300.42Z" style="opacity:0.30000000000000004"></path></g></g><g id="freepik--speech-bubble--inject-52"><g id="freepik--speech-bubble--inject-52"><g id="freepik--speech-bubble--inject-52"><path d="M154.86,103.31a21.62,21.62,0,0,1,8.37,13.57l.3,2.46a21.69,21.69,0,0,1-42.79,6.22l-.42-2.45a21.69,21.69,0,0,1,34.54-19.8Z" style="fill:#fff"></path><path d="M123,106.66a23.54,23.54,0,0,0,35.19,31l7.05,2a1.37,1.37,0,0,0,1.53-2l-3.9-6.2A23.55,23.55,0,0,0,123,106.66Zm31.86-3.37a21.62,21.62,0,0,1,8.39,13.55l.3,2.47a21.69,21.69,0,0,1-42.78,6.29l-.42-2.45a21.69,21.69,0,0,1,34.51-19.86Z" style="fill:#455a64"></path></g><polygon points="138.04 124.54 138.04 132.21 145.71 132.21 145.71 124.54 153.38 124.54 153.38 116.87 145.71 116.87 145.71 109.2 138.04 109.2 138.04 116.87 130.38 116.87 130.38 124.54 138.04 124.54" style="fill:#0E006B"></polygon></g></g></svg>